<?xml version="1.0" encoding="UTF-8" standalone="no"?>
<!-- Created with Inkscape (http://www.inkscape.org/) -->

<svg
   width="54.39323mm"
   height="48.488972mm"
   viewBox="0 0 54.39323 48.488972"
   version="1.1"
   id="svg1"
   sodipodi:docname="MUSsmalllogo2.svg"
   inkscape:version="1.3.2 (091e20e, 2023-11-25, custom)"
   xmlns:inkscape="http://www.inkscape.org/namespaces/inkscape"
   xmlns:sodipodi="http://sodipodi.sourceforge.net/DTD/sodipodi-0.dtd"
   xmlns="http://www.w3.org/2000/svg"
   xmlns:svg="http://www.w3.org/2000/svg">
  <sodipodi:namedview
     id="namedview1"
     pagecolor="#ffffff"
     bordercolor="#000000"
     borderopacity="0.25"
     inkscape:showpageshadow="2"
     inkscape:pageopacity="0.0"
     inkscape:pagecheckerboard="0"
     inkscape:deskcolor="#d1d1d1"
     inkscape:document-units="mm"
     inkscape:zoom="9.0517493"
     inkscape:cx="114.78444"
     inkscape:cy="46.455109"
     inkscape:window-width="2560"
     inkscape:window-height="1369"
     inkscape:window-x="1072"
     inkscape:window-y="-8"
     inkscape:window-maximized="1"
     inkscape:current-layer="Group_2099" />
  <defs
     id="defs1" />
  <g
     inkscape:label="Layer 1"
     inkscape:groupmode="layer"
     id="layer1"
     transform="translate(-42.870252,-59.467692)">
    <g
       id="Group_2099"
       data-name="Group 2099"
       transform="matrix(0.70888727,0,0,0.70888727,9.3292222,-135.62872)"
       style="display:inline;fill:#000000"
       inkscape:label="mus">
      <g
         id="Group_2098"
         data-name="Group 2098"
         inkscape:label="coloring"
         style="display:inline">
        <path
           id="Path_1101"
           data-name="Path 1101"
           d="m 99.949,278.819 c -0.111,-0.013 -0.178,-0.017 -0.178,-0.017 l -2.1,2.835 1.418,1.417 0.176,-0.044 5.493,-1.373 a 7.463,7.463 0 0 0 -4.809,-2.818 z"
           fill="#fda654"
           style="display:inline;fill:#ffcc00;fill-opacity:1"
           transform="translate(-1.3107396e-6)"
           inkscape:label="beak" />
        <path
           id="Path_1103"
           data-name="Path 1103"
           d="m 89.169,281.637 h -4.252 c -1.355,3.01 -5.669,4.252 -5.669,4.252 0,0 7.087,-0.711 7.087,5.669 v 0 a 9.734,9.734 0 0 0 2.834,-9.921 z"
           fill="#be8a66"
           style="display:inline;fill:#ffcc00;fill-opacity:1"
           transform="translate(-1.3107396e-6)"
           inkscape:label="neck" />
        <path
           id="Path_1102"
           data-name="Path 1102"
           d="m 93.421,275.968 c -2.016,0 -6.058,0.237 -8.5,5.669 h 4.252 c 0,0 1.486,-2.835 4.252,-2.835 a 14.69,14.69 0 0 1 5.394,1.292 l 0.956,-1.292 c 0,0 0.067,0 0.178,0.017 a 9.071,9.071 0 0 0 -6.532,-2.851 z"
           fill="#b3b3b3"
           style="display:inline;fill:#1a1a1a;fill-opacity:1"
           transform="translate(-1.3107396e-6)"
           inkscape:label="head" />
        <path
           id="Path_1104"
           data-name="Path 1104"
           d="m 99.267,283.01 -0.176,0.044 -1.418,-1.417 1.142,-1.543 a 14.69,14.69 0 0 0 -5.394,-1.292 c -2.766,0 -4.252,2.835 -4.252,2.835 a 5.664,5.664 0 0 1 5.67,4.252 v 4.252 H 92 a 12.734,12.734 0 0 1 4.119,6.517 23.622,23.622 0 0 0 1.55,-9.352 7.6,7.6 0 0 1 1.598,-4.296 z"
           fill="#333333"
           style="display:inline;fill:#ff6666;fill-opacity:1"
           transform="translate(-1.3107396e-6)"
           inkscape:label="face" />
        <path
           id="Path_1106"
           data-name="Path 1106"
           d="m 63.48,311.4 a 1.411,1.411 0 0 0 1.827,2.01 l 5.009,-2.505 a 9.034,9.034 0 0 1 -2.406,-2.34 v -1.417 l -2.577,1.288 z"
           fill="#b3b3b3"
           style="display:inline;fill:#ff6666;fill-opacity:1"
           transform="translate(-1.3107396e-6)"
           inkscape:label="butt" />
        <path
           id="Path_1108"
           data-name="Path 1108"
           d="m 63.583,309.312 -15.516,19.1 a 7.645,7.645 0 0 0 5.669,-2.835 l 11.571,-12.163 a 1.411,1.411 0 0 1 -1.827,-2.01 l 1.853,-2.964 v 0 z"
           fill="#be8a66"
           style="display:inline;fill:#ffcc00;fill-opacity:1"
           transform="translate(-1.3107396e-6)"
           inkscape:label="tail" />
        <path
           id="Path_1109"
           data-name="Path 1109"
           d="m 79.248,285.889 c -5.481,0 -19.842,25.512 -19.842,25.512 l 4.177,-2.089 1.75,-0.875 v 0 l 2.577,-1.288 1.546,-0.773 1.288,-0.645 c 0,0 15.591,-7.793 15.591,-14.173 0,-6.38 -7.087,-5.669 -7.087,-5.669 z"
           fill="#985c4c"
           style="display:inline;fill:#cc0066;fill-opacity:1"
           transform="translate(-1.3107396e-6)"
           inkscape:label="wing" />
        <path
           id="Path_1111"
           data-name="Path 1111"
           d="M 107.595,295.81 69.327,334.078 H 75 l 32.6,-32.6 z"
           fill="#fda654"
           style="display:inline;fill:#ff6666;fill-opacity:1;stroke:none;stroke-width:0.104133;stroke-dasharray:none;stroke-opacity:1"
           transform="translate(-1.3107396e-6)"
           inkscape:label="branch" />
        <path
           id="Path_1110"
           data-name="Path 1110"
           d="m 92,290.141 h 2.835 v -4.252 a 5.664,5.664 0 0 0 -5.67,-4.252 9.734,9.734 0 0 1 -2.834,9.921 c 0,6.38 -15.591,14.173 -15.591,14.173 l -1.288,0.645 -1.546,0.773 v 1.417 a 9.034,9.034 0 0 0 2.406,2.34 12.2,12.2 0 0 0 6.1,1.912 H 77.83 V 311.4 c 11.347,-3.557 16.21,-9.543 18.292,-14.743 A 12.734,12.734 0 0 0 92,290.141 Z"
           fill="#e5e5e5"
           style="display:inline;fill:#ffffff;fill-opacity:1"
           transform="translate(-1.3107396e-6)"
           inkscape:label="belly" />
      </g>
      <path
         id="Path_1117"
         data-name="Path 1117"
         d="m 107.064,300.949 -8.01,8.01 c -0.753805,-0.59464 -1.688965,-0.91236 -2.649,-0.9 l 11.72,-11.721 c 0.73156,-0.70724 -0.35445,-1.79222 -1.061,-1.06 l -13.643,13.645 -3.134,-3.134 c 2.886497,-2.35498 5.132998,-5.39938 6.532,-8.852 1.154522,-2.97529 1.700295,-6.15199 1.605,-9.342 v -0.289 c 0.06247,-1.31744 0.519586,-2.58566 1.312,-3.64 l 5.207,-1.3 c 0.532,-0.13341 0.74556,-0.77407 0.4,-1.2 -1.24525,-1.59712 -3.0326,-2.68255 -5.024,-3.051 -1.839538,-1.82094 -4.311927,-2.86006 -6.9,-2.9 -1.592,0 -6.436,0 -9.188,6.111 -1.14,2.535 -4.8,3.718 -5.157,3.828 -5.839,0.44 -18.846,23.251 -20.324,25.876 -0.363368,0.64458 0.327297,1.37016 0.989,1.039 l 1.067,-0.534 -13.323,16.4 c -0.398291,0.49011 -0.04954,1.22297 0.582,1.223 2.432553,-0.0739 4.711617,-1.20611 6.24,-3.1 l 11.453,-12.04 4.515,-2.258 c 1.863983,1.10224 3.973949,1.721 6.138,1.8 h 1.058 l 5.024,6.281 -13.7,13.7 c -0.731556,0.70724 0.354454,1.79222 1.061,1.06 l 13.894,-13.894 c 0.912242,0.14108 1.634836,0.84481 1.8,1.753 l -11.082,11.088 c -0.757891,0.70621 0.35379,1.81789 1.06,1.06 L 86.865,323.27 v 0 l 9.921,-9.92 v 0 l 2.83,-2.829 v 0 l 8.508,-8.508 c 0.70733,-0.70733 -0.35367,-1.76833 -1.061,-1.061 z m -9.088,9.089 -1.29,1.29 c -0.322542,-0.65277 -0.842467,-1.18739 -1.486,-1.528 0.906805,-0.39053 1.948904,-0.30119 2.776,0.238 z m -8.843,8.842 c -0.7547,-0.5937 -1.689829,-0.9113 -2.65,-0.9 l 7.19,-7.19 c 0.908675,0.14732 1.626742,0.84978 1.794,1.755 z m 7.791,-31.28 c 0.05589,2.26014 -0.213531,4.51656 -0.8,6.7 -0.021,-0.045 -0.046,-0.085 -0.067,-0.13 -0.133,-0.279 -0.271,-0.548 -0.418,-0.806 -0.019,-0.033 -0.036,-0.069 -0.055,-0.1 -0.168,-0.291 -0.344,-0.563 -0.522,-0.824 -0.051,-0.074 -0.1,-0.141 -0.151,-0.212 -0.136,-0.192 -0.271,-0.374 -0.407,-0.548 -0.05,-0.064 -0.1,-0.128 -0.149,-0.189 -0.175,-0.215 -0.347,-0.42 -0.511,-0.6 h 0.99 c 0.414214,0 0.75,-0.33579 0.75,-0.75 v -4.252 c 0,-0.0542 -0.006,-0.10817 -0.018,-0.161 -0.04269,-0.1867 -0.09645,-0.37069 -0.161,-0.551 -0.01,-0.027 -0.017,-0.052 -0.027,-0.08 -0.07434,-0.20015 -0.158781,-0.3964 -0.253,-0.588 -0.018,-0.037 -0.035,-0.073 -0.055,-0.11 -0.108362,-0.21184 -0.227862,-0.41779 -0.358,-0.617 -0.021,-0.033 -0.045,-0.065 -0.068,-0.1 -0.149505,-0.22236 -0.312826,-0.43511 -0.489,-0.637 -0.011,-0.013 -0.023,-0.025 -0.035,-0.037 -0.186716,-0.20911 -0.38716,-0.40555 -0.6,-0.588 -0.026,-0.022 -0.049,-0.045 -0.075,-0.067 -0.228077,-0.18806 -0.469364,-0.3595 -0.722,-0.513 l -0.139,-0.084 c -0.270789,-0.15453 -0.552936,-0.28825 -0.844,-0.4 -0.053,-0.021 -0.108,-0.04 -0.163,-0.059 -0.327431,-0.11895 -0.663832,-0.21157 -1.006,-0.277 l -0.027,-0.008 c 0.07,-0.079 0.134,-0.157 0.215,-0.237 l 0.014,-0.015 c 0.144114,-0.14244 0.296727,-0.27602 0.457,-0.4 0.026,-0.02 0.051,-0.041 0.078,-0.061 0.168298,-0.1249 0.345805,-0.23689 0.531,-0.335 0.035,-0.019 0.071,-0.037 0.107,-0.054 0.1998,-0.0996 0.408774,-0.17966 0.624,-0.239 0.032,-0.009 0.066,-0.014 0.1,-0.022 0.034,-0.008 0.071,-0.007 0.1,-0.014 -0.719175,1.7113 3.251441,1.96622 2.757,0.177 0.029,0.007 0.06,0.01 0.089,0.017 l 0.134,0.028 c 0.324,0.077 0.632,0.163 0.922,0.251 l 0.225,0.071 c 0.228,0.073 0.443,0.146 0.636,0.216 0.03,0.012 0.064,0.023 0.093,0.034 l -0.565,0.763 c -0.220542,0.29857 -0.189504,0.71356 0.073,0.976 l 1.08,1.08 c -0.81483,1.19975 -1.266213,2.6091 -1.3,4.059 z m -2.753,-7.424 c 0,0.046 -0.082,0.046 -0.082,0 0,-0.0547 0.082,-0.0547 0.082,0 z m 5.15,2.046 -0.66,-0.66 0.757,-1.024 v 0 l 0.472,-0.638 0.223,-0.3 c 1.20438,0.2303 2.32118,0.79043 3.226,1.618 z m -5.9,-5.506 c 1.995451,0.0426 3.917456,0.76075 5.452,2.037 l -0.311,0.42 c -0.071,-0.029 -0.156,-0.06 -0.234,-0.09 l -0.193,-0.074 c -0.183,-0.068 -0.378,-0.137 -0.588,-0.207 l -0.1,-0.033 c -0.179,-0.058 -0.365,-0.116 -0.559,-0.172 -0.079,-0.023 -0.161,-0.044 -0.242,-0.066 -0.16,-0.044 -0.321,-0.086 -0.489,-0.126 l -0.285,-0.064 c -0.165,-0.036 -0.331,-0.069 -0.5,-0.1 -0.1,-0.017 -0.2,-0.035 -0.3,-0.051 -0.182,-0.028 -0.366,-0.051 -0.552,-0.071 -0.089,-0.01 -0.177,-0.022 -0.268,-0.03 -0.274,-0.023 -0.55,-0.039 -0.827,-0.039 -0.272437,0.002 -0.544162,0.0281 -0.812,0.078 -0.056,0.009 -0.112,0.018 -0.167,0.03 -0.240516,0.0481 -0.476902,0.11502 -0.707,0.2 -0.037,0.014 -0.072,0.031 -0.108,0.046 -0.197815,0.0801 -0.390512,0.17225 -0.577,0.276 -0.035,0.02 -0.071,0.037 -0.105,0.058 -0.19069,0.11217 -0.37467,0.23538 -0.551,0.369 l -0.111,0.087 c -0.162,0.128 -0.316,0.26 -0.457,0.393 l -0.022,0.02 c -0.148,0.142 -0.28,0.284 -0.4,0.423 l -0.076,0.086 c -0.114,0.134 -0.218,0.262 -0.308,0.382 l -0.035,0.049 c -0.083,0.111 -0.154,0.213 -0.215,0.306 l -0.02,0.028 h -2.62 c 1.370146,-2.72743 4.24164,-4.36789 7.287,-4.163 z m -8.043,5.669 h 3.21 c 0.492645,2.28704 0.09194,4.67589 -1.12,6.677 -0.065,0.1 -0.128,0.206 -0.2,0.309 -0.072,0.103 -0.146,0.2 -0.221,0.3 -0.045,0.058 -0.095,0.116 -0.141,0.174 -0.008,-0.038 -0.023,-0.072 -0.032,-0.11 -0.05012,-0.2083 -0.11087,-0.4139 -0.182,-0.616 -0.019,-0.054 -0.035,-0.111 -0.056,-0.164 -0.0918,-0.23807 -0.199716,-0.46961 -0.323,-0.693 -0.031,-0.054 -0.065,-0.106 -0.1,-0.159 -0.102178,-0.17003 -0.213681,-0.33428 -0.334,-0.492 -0.044,-0.058 -0.088,-0.116 -0.134,-0.171 -0.161704,-0.19808 -0.337494,-0.38423 -0.526,-0.557 -0.200052,-0.17828 -0.412593,-0.34203 -0.636,-0.49 -0.044,-0.03 -0.087,-0.06 -0.131,-0.088 -0.210339,-0.13464 -0.428379,-0.25685 -0.653,-0.366 -0.041,-0.02 -0.081,-0.036 -0.121,-0.055 -0.21,-0.0967 -0.421,-0.18233 -0.633,-0.257 -0.027,-0.01 -0.053,-0.021 -0.08,-0.03 -0.228,-0.077 -0.454,-0.141 -0.677,-0.2 -0.022,-0.005 -0.044,-0.014 -0.065,-0.019 1.29486,-0.70432 2.382631,-1.73554 3.155,-2.991 z m -6.13,4.252 c 0.02464,0.001 0.04936,0.001 0.074,0 h 0.012 c 0.035,0 0.223,-0.017 0.524,-0.017 0.892296,-0.006 1.779979,0.12853 2.63,0.4 l 0.023,0.008 c 0.389872,0.13189 0.763053,0.30875 1.112,0.527 l 0.112,0.073 c 0.17017,0.11169 0.331935,0.23569 0.484,0.371 0.120135,0.12107 0.23205,0.25002 0.335,0.386 0.09228,0.0953 0.179399,0.19543 0.261,0.3 0.09313,0.15368 0.175976,0.31337 0.248,0.478 0.058,0.117 0.131,0.221 0.179,0.345 0.07529,0.21852 0.135102,0.44208 0.179,0.669 0.023,0.1 0.06,0.186 0.078,0.289 0.05865,0.36034 0.08741,0.72492 0.086,1.09 -0.0022,0.31332 -0.04381,0.62511 -0.124,0.928 -0.935,3.621 -6.958,7.918 -11.5,10.618 -0.2,0.117 -0.392,0.231 -0.583,0.342 -0.383,0.223 -0.752,0.432 -1.1,0.627 -0.7,0.391 -1.337,0.724 -1.864,0.988 l -2.835,1.417 -2.579,1.29 -1.749,0.875 -1.958,0.979 c 5.63,-9.679 14.542,-22.981 17.955,-22.981 z m -26.055,38.42 c -0.01997,0.0209 -0.03867,0.0429 -0.056,0.066 -0.860665,1.03243 -1.987825,1.80923 -3.259,2.246 l 12.665,-15.588 v 0.071 c -0.01596,0.11327 -0.02298,0.22763 -0.021,0.342 v 0.1 c 0.0097,0.14234 0.03345,0.28336 0.071,0.421 0.008,0.029 0.02,0.056 0.029,0.085 0.03618,0.11306 0.08201,0.2228 0.137,0.328 0.018,0.036 0.037,0.072 0.058,0.107 0.182352,0.32667 0.453477,0.59502 0.782,0.774 0.022,0.013 0.039,0.035 0.061,0.047 z M 64.971,312.74 c -0.59699,0.29981 -1.210477,-0.37539 -0.855,-0.941 l 1.741,-2.785 1.3,-0.652 v 0.2 c 2.73e-4,0.15387 0.04774,0.30396 0.136,0.43 0.207969,0.294 0.432673,0.5758 0.673,0.844 0.07,0.08 0.145,0.156 0.218,0.233 0.183,0.194 0.374,0.38 0.574,0.56 0.05,0.045 0.093,0.1 0.144,0.141 z m 12.11,-0.672 h -0.666 c -2.017795,-0.088 -3.977261,-0.70347 -5.683,-1.785 -0.798002,-0.52957 -1.499183,-1.19219 -2.073,-1.959 v -0.711 l 0.929,-0.465 0.2,-0.1 v 0 l 1.289,-0.645 c 0.04,-0.02 0.136,-0.068 0.281,-0.143 0.118,-0.06 0.276,-0.143 0.456,-0.238 l 0.123,-0.065 0.2,-0.1 0.19,-0.1 0.244,-0.133 0.2,-0.108 0.291,-0.162 0.205,-0.113 0.305,-0.173 0.241,-0.137 0.313,-0.181 0.274,-0.159 c 0.11,-0.064 0.224,-0.132 0.337,-0.2 l 0.281,-0.166 0.352,-0.225 0.3,-0.184 0.353,-0.219 c 0.108,-0.068 0.216,-0.134 0.326,-0.2 0.11,-0.066 0.244,-0.155 0.366,-0.233 l 0.332,-0.213 0.38,-0.25 c 0.111,-0.073 0.222,-0.145 0.333,-0.22 0.128,-0.086 0.257,-0.173 0.385,-0.261 l 0.341,-0.232 0.383,-0.269 c 0.115,-0.081 0.23,-0.161 0.345,-0.244 0.115,-0.083 0.256,-0.185 0.384,-0.279 0.128,-0.094 0.229,-0.167 0.343,-0.252 0.114,-0.085 0.253,-0.191 0.379,-0.287 0.126,-0.096 0.229,-0.174 0.343,-0.263 l 0.371,-0.293 c 0.112667,-0.09 0.225333,-0.18033 0.338,-0.271 0.122,-0.1 0.241,-0.2 0.362,-0.3 0.121,-0.1 0.22,-0.184 0.329,-0.278 0.109,-0.094 0.235,-0.2 0.351,-0.307 0.116,-0.107 0.214,-0.189 0.319,-0.285 0.105,-0.096 0.224,-0.207 0.334,-0.311 0.11,-0.104 0.207,-0.194 0.308,-0.293 0.101,-0.099 0.211,-0.208 0.315,-0.313 0.104,-0.105 0.2,-0.2 0.294,-0.3 0.094,-0.1 0.2,-0.21 0.295,-0.316 0.095,-0.106 0.185,-0.2 0.274,-0.3 0.089,-0.1 0.183,-0.212 0.271,-0.318 0.088,-0.106 0.173,-0.207 0.255,-0.311 0.082,-0.104 0.166,-0.212 0.246,-0.319 0.08,-0.107 0.155,-0.209 0.23,-0.313 0.075,-0.104 0.148,-0.215 0.219,-0.322 0.071,-0.107 0.137,-0.21 0.2,-0.316 0.063,-0.106 0.128,-0.213 0.188,-0.32 0.06,-0.107 0.118,-0.214 0.173,-0.32 0.055,-0.106 0.106,-0.213 0.155,-0.319 0.049,-0.106 0.1,-0.214 0.141,-0.322 0.041,-0.108 0.083,-0.211 0.12,-0.316 0.037,-0.105 0.072,-0.216 0.1,-0.324 0.028,-0.108 0.058,-0.209 0.083,-0.314 0.025,-0.105 0.046,-0.216 0.064,-0.323 0.018,-0.107 0.033,-0.207 0.044,-0.31 0,-0.051 0.017,-0.1 0.021,-0.154 0.467749,-0.44357 0.894791,-0.92817 1.276,-1.448 0.058,-0.079 0.111,-0.157 0.166,-0.236 0.14,-0.2 0.271,-0.4 0.391,-0.608 0.045,-0.076 0.092,-0.151 0.134,-0.227 0.15,-0.27 0.288,-0.539 0.407,-0.807 l 0.02,-0.051 c 0.111,-0.254 0.206,-0.507 0.291,-0.757 0.027,-0.08 0.051,-0.158 0.075,-0.236 0.06267,-0.2 0.118,-0.398 0.166,-0.594 0.017,-0.07 0.036,-0.14 0.052,-0.209 0.057,-0.257 0.1,-0.51 0.141,-0.756 0,-0.028 0.006,-0.054 0.01,-0.081 0.031,-0.222 0.053,-0.439 0.069,-0.652 0.005,-0.07 0.009,-0.138 0.013,-0.207 0.01,-0.177 0.016,-0.35 0.018,-0.518 v -0.17 c 0,-0.215 -0.008,-0.423 -0.02,-0.621 0,-0.029 0,-0.056 -0.007,-0.085 -0.012,-0.17 -0.026,-0.331 -0.044,-0.485 -0.006,-0.054 -0.012,-0.1 -0.019,-0.157 -0.016,-0.133 -0.034,-0.258 -0.054,-0.377 -0.006,-0.036 -0.011,-0.073 -0.017,-0.108 l -0.006,-0.04 0.085,0.014 c 0.303977,0.0501 0.602842,0.12744 0.893,0.231 0.04,0.015 0.078,0.032 0.117,0.048 0.262066,0.10094 0.514434,0.22545 0.754,0.372 0.016,0.01 0.03,0.022 0.046,0.032 0.216371,0.13823 0.420456,0.2948 0.61,0.468 l 0.037,0.032 c 0.16995,0.15895 0.327727,0.33043 0.472,0.513 0.019,0.024 0.04,0.047 0.058,0.071 0.122122,0.15812 0.234657,0.32342 0.337,0.495 0.017,0.027 0.033,0.055 0.049,0.081 0.09,0.158 0.168,0.309 0.231,0.447 0.011,0.023 0.021,0.046 0.031,0.069 0.059,0.134 0.109,0.26 0.145,0.363 l 0.013,0.037 c 0.034,0.1 0.061,0.187 0.075,0.24 v 3.41 H 92 c -0.709195,8e-5 -1.022118,0.89338 -0.468,1.336 l 0.087,0.074 0.055,0.046 0.049,0.044 0.108,0.1 0.082,0.077 c 0.039,0.036 0.077,0.071 0.121,0.114 0.044,0.043 0.07,0.069 0.1,0.1 l 0.14,0.137 0.12,0.125 c 0.051,0.053 0.1,0.1 0.154,0.162 0.054,0.062 0.087,0.1 0.131,0.143 0.056,0.063 0.112,0.124 0.171,0.191 0.044,0.051 0.09,0.106 0.135,0.16 0.06,0.07 0.119,0.139 0.18,0.213 0.048,0.059 0.1,0.123 0.145,0.185 0.045,0.062 0.12,0.151 0.18,0.231 0.048,0.065 0.1,0.134 0.145,0.2 0.06,0.083 0.12,0.166 0.18,0.252 0.06,0.086 0.1,0.148 0.146,0.222 0.046,0.074 0.115,0.177 0.172,0.269 0.057,0.092 0.094,0.159 0.141,0.238 0.055,0.1 0.11,0.189 0.163,0.287 0.053,0.098 0.088,0.169 0.132,0.255 0.044,0.086 0.1,0.2 0.15,0.3 0.05,0.1 0.08,0.18 0.119,0.271 0.039,0.091 0.09,0.209 0.132,0.316 0.042,0.107 0.07,0.191 0.1,0.287 0.03,0.096 0.076,0.218 0.11,0.329 0.034,0.111 0.056,0.2 0.083,0.3 0.021,0.08 0.041,0.16 0.06,0.241 -2.693,6.5 -8.656,11.241 -17.73,14.085 -0.312447,0.0986 -0.524918,0.38837 -0.525,0.716 z m 1.5,0.487 v -0.606 c 3.76594,-1.1623 7.318651,-2.92717 10.52,-5.226 l 3.26,3.26 -8.8,8.8 z m 6.7,7.167 c 0.906359,-0.39047 1.94798,-0.30151 2.775,0.237 l -1.288,1.288 c -0.323613,-0.65227 -0.844646,-1.1859 -1.489,-1.525 z"
         fill="#1a1a1a"
         style="display:inline"
         inkscape:label="outline"
         sodipodi:nodetypes="ccccccccccccccccccscccccccccccccccccccccscccccccccccccccccccccsscccccccccccccccccccccccccscccccccccccccsssccccccccccccccccccccccccccccccccccccccccccccccscccsccccccccccccccccccsccccccccccccccccccccccccccccccccccccccccccccccscccccccccccccccccccccccccccccscccccccsssscccsssssssssssssssssssssssscccccccccccccccccscccccccccccccccccccccccccccccccscccsccccsccssscssssssscccccccccccccccc" />
    </g>
    <text
       xml:space="preserve"
       style="font-style:normal;font-variant:normal;font-weight:500;font-stretch:normal;font-size:16.5109px;line-height:0.55;font-family:'CC Accidenz Commons';-inkscape-font-specification:'CC Accidenz Commons, Medium';font-variant-ligatures:normal;font-variant-caps:normal;font-variant-numeric:normal;font-variant-east-asian:normal;text-align:start;letter-spacing:-0.934993px;text-anchor:start;display:inline;overflow:visible;fill:#000000;stroke:none;stroke-width:0.280497;stroke-dasharray:none;image-rendering:auto"
       x="-29.907507"
       y="117.53922"
       id="text32"
       inkscape:label="m"
       transform="rotate(-46.705441)"><tspan
         style="line-height:0.55;text-align:start;letter-spacing:-0.934993px;text-anchor:start;fill:#000000;stroke:none;stroke-width:0.280497;stroke-dasharray:none"
         sodipodi:role="line"
         id="tspan35"
         x="-29.907507"
         y="117.53922" /><tspan
         style="line-height:0.55;text-align:start;letter-spacing:-0.934993px;text-anchor:start;fill:#cc0066;fill-opacity:1;stroke:#000000;stroke-width:0.280497;stroke-dasharray:none;stroke-opacity:1"
         sodipodi:role="line"
         x="-29.907507"
         y="126.62022"
         id="tspan36">M</tspan><tspan
         sodipodi:role="line"
         style="line-height:0.55;text-align:start;letter-spacing:-0.934993px;text-anchor:start;fill:#000000;stroke:#000000;stroke-width:0.280497;stroke-dasharray:none;stroke-opacity:1"
         x="-29.907507"
         y="135.70122"
         id="tspan34" /></text>
    <text
       xml:space="preserve"
       style="font-style:normal;font-variant:normal;font-weight:bold;font-stretch:normal;font-size:17.856px;line-height:0.95;font-family:'Segoe UI';-inkscape-font-specification:'Segoe UI Bold';text-align:center;letter-spacing:-0.808934px;text-anchor:middle;fill:#ffcc00;fill-opacity:1;stroke:#000000;stroke-width:0.30335;stroke-linecap:round;stroke-linejoin:round;stroke-dasharray:none;stroke-opacity:1"
       x="-18.969551"
       y="128.01631"
       id="text3"
       transform="rotate(-47.416183)"
       inkscape:label="u"><tspan
         sodipodi:role="line"
         id="tspan3"
         style="font-size:17.856px;text-align:start;letter-spacing:-0.808934px;text-anchor:start;stroke-width:0.30335;stroke-dasharray:none"
         x="-18.969551"
         y="128.01631">U</tspan></text>
    <text
       xml:space="preserve"
       style="font-style:normal;font-variant:normal;font-weight:bold;font-stretch:normal;font-size:17.9959px;line-height:0.95;font-family:'Segoe UI';-inkscape-font-specification:'Segoe UI Bold';text-align:center;letter-spacing:-0.815268px;text-anchor:middle;fill:#ff6666;fill-opacity:1;stroke:#000000;stroke-width:0.305726;stroke-linecap:round;stroke-linejoin:round;stroke-dasharray:none;stroke-opacity:1"
       x="-2.3905015"
       y="126.9934"
       id="text3-5"
       transform="rotate(-45.882076)"
       inkscape:label="s"><tspan
         sodipodi:role="line"
         id="tspan3-4"
         style="font-size:17.9959px;text-align:start;letter-spacing:-0.815268px;text-anchor:start;fill:#ff6666;fill-opacity:1;stroke-width:0.305726;stroke-dasharray:none"
         x="-2.3905015"
         y="126.9934"
         dy="1.205568">S</tspan></text>
  </g>
</svg>
