<?xml version="1.0" encoding="UTF-8" standalone="no"?>
<!-- Created with Inkscape (http://www.inkscape.org/) -->

<svg
   width="54.39323mm"
   height="48.488972mm"
   viewBox="0 0 54.39323 48.488972"
   version="1.1"
   id="svg1"
   xmlns:inkscape="http://www.inkscape.org/namespaces/inkscape"
   xmlns:sodipodi="http://sodipodi.sourceforge.net/DTD/sodipodi-0.dtd"
   xmlns="http://www.w3.org/2000/svg"
   xmlns:svg="http://www.w3.org/2000/svg">
  <sodipodi:namedview
     id="namedview1"
     pagecolor="#ffffff"
     bordercolor="#000000"
     borderopacity="0.25"
     inkscape:showpageshadow="2"
     inkscape:pageopacity="0.0"
     inkscape:pagecheckerboard="0"
     inkscape:deskcolor="#d1d1d1"
     inkscape:document-units="mm" />
  <defs
     id="defs1" />
  <g
     inkscape:label="Layer 1"
     inkscape:groupmode="layer"
     id="layer1"
     transform="translate(-42.870252,-59.467692)">
    <g
       id="Group_2099"
       data-name="Group 2099"
       transform="matrix(0.70888727,0,0,0.70888727,9.3292222,-135.62872)"
       style="display:inline;fill:#000000">
      <g
         id="Group_2098"
         data-name="Group 2098">
        <g
           id="Group_2022"
           data-name="Group 2022"
           style="fill:#ffcc00;fill-opacity:1">
          <g
             id="Group_2021"
             data-name="Group 2021"
             style="fill:#ffcc00;fill-opacity:1">
            <g
               id="Group_2020"
               data-name="Group 2020"
               style="fill:#ffcc00;fill-opacity:1">
              <g
                 id="Group_2019"
                 data-name="Group 2019"
                 style="fill:#ffcc00;fill-opacity:1">
                <g
                   id="Group_2018"
                   data-name="Group 2018"
                   style="fill:#ffcc00;fill-opacity:1">
                  <path
                     id="Path_1101"
                     data-name="Path 1101"
                     d="m 99.949,278.819 c -0.111,-0.013 -0.178,-0.017 -0.178,-0.017 l -2.1,2.835 1.418,1.417 0.176,-0.044 5.493,-1.373 a 7.463,7.463 0 0 0 -4.809,-2.818 z"
                     fill="#fda654"
                     style="fill:#ffcc00;fill-opacity:1" />
                </g>
              </g>
            </g>
          </g>
        </g>
        <g
           id="Group_2027"
           data-name="Group 2027"
           style="fill:#1a1a1a;fill-opacity:1">
          <g
             id="Group_2026"
             data-name="Group 2026"
             style="fill:#1a1a1a;fill-opacity:1">
            <g
               id="Group_2025"
               data-name="Group 2025"
               style="fill:#1a1a1a;fill-opacity:1">
              <g
                 id="Group_2024"
                 data-name="Group 2024"
                 style="fill:#1a1a1a;fill-opacity:1">
                <g
                   id="Group_2023"
                   data-name="Group 2023"
                   style="fill:#1a1a1a;fill-opacity:1">
                  <path
                     id="Path_1102"
                     data-name="Path 1102"
                     d="m 93.421,275.968 c -2.016,0 -6.058,0.237 -8.5,5.669 h 4.252 c 0,0 1.486,-2.835 4.252,-2.835 a 14.69,14.69 0 0 1 5.394,1.292 l 0.956,-1.292 c 0,0 0.067,0 0.178,0.017 a 9.071,9.071 0 0 0 -6.532,-2.851 z"
                     fill="#b3b3b3"
                     style="fill:#1a1a1a;fill-opacity:1" />
                </g>
              </g>
            </g>
          </g>
        </g>
        <g
           id="Group_2032"
           data-name="Group 2032"
           style="fill:#ffcc00;fill-opacity:1">
          <g
             id="Group_2031"
             data-name="Group 2031"
             style="fill:#ffcc00;fill-opacity:1">
            <g
               id="Group_2030"
               data-name="Group 2030"
               style="fill:#ffcc00;fill-opacity:1">
              <g
                 id="Group_2029"
                 data-name="Group 2029"
                 style="fill:#ffcc00;fill-opacity:1">
                <g
                   id="Group_2028"
                   data-name="Group 2028"
                   style="fill:#ffcc00;fill-opacity:1">
                  <path
                     id="Path_1103"
                     data-name="Path 1103"
                     d="m 89.169,281.637 h -4.252 c -1.355,3.01 -5.669,4.252 -5.669,4.252 0,0 7.087,-0.711 7.087,5.669 v 0 a 9.734,9.734 0 0 0 2.834,-9.921 z"
                     fill="#be8a66"
                     style="fill:#ffcc00;fill-opacity:1" />
                </g>
              </g>
            </g>
          </g>
        </g>
        <g
           id="Group_2037"
           data-name="Group 2037"
           style="fill:#ff6666;fill-opacity:1">
          <g
             id="Group_2036"
             data-name="Group 2036"
             style="fill:#ff6666;fill-opacity:1">
            <g
               id="Group_2035"
               data-name="Group 2035"
               style="fill:#ff6666;fill-opacity:1">
              <g
                 id="Group_2034"
                 data-name="Group 2034"
                 style="fill:#ff6666;fill-opacity:1">
                <g
                   id="Group_2033"
                   data-name="Group 2033"
                   style="fill:#ff6666;fill-opacity:1">
                  <path
                     id="Path_1104"
                     data-name="Path 1104"
                     d="m 99.267,283.01 -0.176,0.044 -1.418,-1.417 1.142,-1.543 a 14.69,14.69 0 0 0 -5.394,-1.292 c -2.766,0 -4.252,2.835 -4.252,2.835 a 5.664,5.664 0 0 1 5.67,4.252 v 4.252 H 92 a 12.734,12.734 0 0 1 4.119,6.517 23.622,23.622 0 0 0 1.55,-9.352 7.6,7.6 0 0 1 1.598,-4.296 z"
                     fill="#333333"
                     style="fill:#ff6666;fill-opacity:1" />
                </g>
              </g>
            </g>
          </g>
        </g>
        <g
           id="Group_2042"
           data-name="Group 2042">
          <g
             id="Group_2041"
             data-name="Group 2041">
            <g
               id="Group_2040"
               data-name="Group 2040">
              <g
                 id="Group_2039"
                 data-name="Group 2039">
                <g
                   id="Group_2038"
                   data-name="Group 2038">
                  <path
                     id="Path_1105"
                     data-name="Path 1105"
                     d="M 67.91,318.487"
                     fill="none"
                     stroke="#7a7a7a"
                     stroke-linecap="round"
                     stroke-linejoin="round"
                     stroke-width="3" />
                </g>
              </g>
            </g>
          </g>
        </g>
        <g
           id="Group_2047"
           data-name="Group 2047"
           style="fill:#ff6666;fill-opacity:1">
          <g
             id="Group_2046"
             data-name="Group 2046"
             style="fill:#ff6666;fill-opacity:1">
            <g
               id="Group_2045"
               data-name="Group 2045"
               style="fill:#ff6666;fill-opacity:1">
              <g
                 id="Group_2044"
                 data-name="Group 2044"
                 style="fill:#ff6666;fill-opacity:1">
                <g
                   id="Group_2043"
                   data-name="Group 2043"
                   style="fill:#ff6666;fill-opacity:1">
                  <path
                     id="Path_1106"
                     data-name="Path 1106"
                     d="m 63.48,311.4 a 1.411,1.411 0 0 0 1.827,2.01 l 5.009,-2.505 a 9.034,9.034 0 0 1 -2.406,-2.34 v -1.417 l -2.577,1.288 z"
                     fill="#b3b3b3"
                     style="fill:#ff6666;fill-opacity:1" />
                </g>
              </g>
            </g>
          </g>
        </g>
        <g
           id="Group_2052"
           data-name="Group 2052">
          <g
             id="Group_2051"
             data-name="Group 2051">
            <g
               id="Group_2050"
               data-name="Group 2050">
              <g
                 id="Group_2049"
                 data-name="Group 2049">
                <g
                   id="Group_2048"
                   data-name="Group 2048">
                  <path
                     id="Path_1107"
                     data-name="Path 1107"
                     d="m 67.91,307.9 a 0.75,0.75 0 0 1 -0.336,-1.421 l 1.546,-0.773 a 0.75020081,0.75020081 0 1 1 0.671,1.342 l -1.546,0.773 A 0.759,0.759 0 0 1 67.91,307.9 Z"
                     fill="#7a7a7a" />
                </g>
              </g>
            </g>
          </g>
        </g>
        <g
           id="Group_2057"
           data-name="Group 2057"
           style="fill:#ffcc00;fill-opacity:1">
          <g
             id="Group_2056"
             data-name="Group 2056"
             style="fill:#ffcc00;fill-opacity:1">
            <g
               id="Group_2055"
               data-name="Group 2055"
               style="fill:#ffcc00;fill-opacity:1">
              <g
                 id="Group_2054"
                 data-name="Group 2054"
                 style="fill:#ffcc00;fill-opacity:1">
                <g
                   id="Group_2053"
                   data-name="Group 2053"
                   style="fill:#ffcc00;fill-opacity:1">
                  <path
                     id="Path_1108"
                     data-name="Path 1108"
                     d="m 63.583,309.312 -15.516,19.1 a 7.645,7.645 0 0 0 5.669,-2.835 l 11.571,-12.163 a 1.411,1.411 0 0 1 -1.827,-2.01 l 1.853,-2.964 v 0 z"
                     fill="#be8a66"
                     style="fill:#ffcc00;fill-opacity:1" />
                </g>
              </g>
            </g>
          </g>
        </g>
        <g
           id="Group_2062"
           data-name="Group 2062"
           style="fill:#cc0066;fill-opacity:1">
          <g
             id="Group_2061"
             data-name="Group 2061"
             style="fill:#cc0066;fill-opacity:1">
            <g
               id="Group_2060"
               data-name="Group 2060"
               style="fill:#cc0066;fill-opacity:1">
              <g
                 id="Group_2059"
                 data-name="Group 2059"
                 style="fill:#cc0066;fill-opacity:1">
                <g
                   id="Group_2058"
                   data-name="Group 2058"
                   style="fill:#cc0066;fill-opacity:1">
                  <path
                     id="Path_1109"
                     data-name="Path 1109"
                     d="m 79.248,285.889 c -5.481,0 -19.842,25.512 -19.842,25.512 l 4.177,-2.089 1.75,-0.875 v 0 l 2.577,-1.288 1.546,-0.773 1.288,-0.645 c 0,0 15.591,-7.793 15.591,-14.173 0,-6.38 -7.087,-5.669 -7.087,-5.669 z"
                     fill="#985c4c"
                     style="fill:#cc0066;fill-opacity:1" />
                </g>
              </g>
            </g>
          </g>
        </g>
        <g
           id="Group_2067"
           data-name="Group 2067"
           style="fill:#ffffff;fill-opacity:1">
          <g
             id="Group_2066"
             data-name="Group 2066"
             style="fill:#ffffff;fill-opacity:1">
            <g
               id="Group_2065"
               data-name="Group 2065"
               style="fill:#ffffff;fill-opacity:1">
              <g
                 id="Group_2064"
                 data-name="Group 2064"
                 style="fill:#ffffff;fill-opacity:1">
                <g
                   id="Group_2063"
                   data-name="Group 2063"
                   style="fill:#ffffff;fill-opacity:1">
                  <path
                     id="Path_1110"
                     data-name="Path 1110"
                     d="m 92,290.141 h 2.835 v -4.252 a 5.664,5.664 0 0 0 -5.67,-4.252 9.734,9.734 0 0 1 -2.834,9.921 c 0,6.38 -15.591,14.173 -15.591,14.173 l -1.288,0.645 -1.546,0.773 v 1.417 a 9.034,9.034 0 0 0 2.406,2.34 12.2,12.2 0 0 0 6.1,1.912 H 77.83 V 311.4 c 11.347,-3.557 16.21,-9.543 18.292,-14.743 A 12.734,12.734 0 0 0 92,290.141 Z"
                     fill="#e5e5e5"
                     style="fill:#ffffff;fill-opacity:1" />
                </g>
              </g>
            </g>
          </g>
        </g>
        <g
           id="Group_2072"
           data-name="Group 2072"
           style="fill:#ff6666;fill-opacity:1;stroke:none;stroke-width:0.104133;stroke-dasharray:none;stroke-opacity:1">
          <g
             id="Group_2071"
             data-name="Group 2071"
             style="fill:#ff6666;fill-opacity:1;stroke:none;stroke-width:0.104133;stroke-dasharray:none;stroke-opacity:1">
            <g
               id="Group_2070"
               data-name="Group 2070"
               style="fill:#ff6666;fill-opacity:1;stroke:none;stroke-width:0.104133;stroke-dasharray:none;stroke-opacity:1">
              <g
                 id="Group_2069"
                 data-name="Group 2069"
                 style="fill:#ff6666;fill-opacity:1;stroke:none;stroke-width:0.104133;stroke-dasharray:none;stroke-opacity:1">
                <g
                   id="Group_2068"
                   data-name="Group 2068"
                   style="fill:#ff6666;fill-opacity:1;stroke:none;stroke-width:0.104133;stroke-dasharray:none;stroke-opacity:1">
                  <path
                     id="Path_1111"
                     data-name="Path 1111"
                     d="M 107.595,295.81 69.327,334.078 H 75 l 32.6,-32.6 z"
                     fill="#fda654"
                     style="fill:#ff6666;fill-opacity:1;stroke:none;stroke-width:0.104133;stroke-dasharray:none;stroke-opacity:1" />
                </g>
              </g>
            </g>
          </g>
        </g>
        <g
           id="Group_2077"
           data-name="Group 2077">
          <g
             id="Group_2076"
             data-name="Group 2076">
            <g
               id="Group_2075"
               data-name="Group 2075">
              <g
                 id="Group_2074"
                 data-name="Group 2074">
                <g
                   id="Group_2073"
                   data-name="Group 2073">
                  <path
                     id="Path_1112"
                     data-name="Path 1112"
                     d="m 86.335,323.489 a 0.75,0.75 0 0 1 -0.75,-0.75 c 0,-1.786 -1.946,-2.063 -2.168,-2.089 a 0.763,0.763 0 0 1 -0.5,-0.277 l -5.669,-7.086 a 0.75025879,0.75025879 0 0 1 1.172,-0.937 l 5.486,6.858 a 3.644,3.644 0 0 1 3.182,3.531 0.75,0.75 0 0 1 -0.753,0.75 z"
                     fill="#7a7a7a" />
                </g>
              </g>
            </g>
          </g>
        </g>
        <g
           id="Group_2082"
           data-name="Group 2082">
          <g
             id="Group_2081"
             data-name="Group 2081">
            <g
               id="Group_2080"
               data-name="Group 2080">
              <g
                 id="Group_2079"
                 data-name="Group 2079">
                <g
                   id="Group_2078"
                   data-name="Group 2078">
                  <path
                     id="Path_1113"
                     data-name="Path 1113"
                     d="m 83.5,320.655 a 0.75,0.75 0 0 1 -0.49,-1.318 c 1.245,-1.075 4.247,-2.448 6.694,0.042 a 0.75,0.75 0 1 1 -1.07,1.051 c -2.084,-2.122 -4.54,-0.047 -4.644,0.042 a 0.745,0.745 0 0 1 -0.49,0.183 z"
                     fill="#7a7a7a" />
                </g>
              </g>
            </g>
          </g>
        </g>
        <g
           id="Group_2087"
           data-name="Group 2087">
          <g
             id="Group_2086"
             data-name="Group 2086">
            <g
               id="Group_2085"
               data-name="Group 2085">
              <g
                 id="Group_2084"
                 data-name="Group 2084">
                <g
                   id="Group_2083"
                   data-name="Group 2083">
                  <path
                     id="Path_1114"
                     data-name="Path 1114"
                     d="m 96.256,313.568 a 0.75,0.75 0 0 1 -0.75,-0.75 c 0,-1.837 -2.076,-2.079 -2.164,-2.089 a 0.748,0.748 0 0 1 -0.451,-0.215 l -4.252,-4.252 A 0.75059393,0.75059393 0 0 1 89.7,305.2 l 4.076,4.077 a 3.655,3.655 0 0 1 3.23,3.54 0.75,0.75 0 0 1 -0.75,0.751 z"
                     fill="#7a7a7a" />
                </g>
              </g>
            </g>
          </g>
        </g>
        <g
           id="Group_2092"
           data-name="Group 2092">
          <g
             id="Group_2091"
             data-name="Group 2091">
            <g
               id="Group_2090"
               data-name="Group 2090">
              <g
                 id="Group_2089"
                 data-name="Group 2089">
                <g
                   id="Group_2088"
                   data-name="Group 2088">
                  <path
                     id="Path_1115"
                     data-name="Path 1115"
                     d="m 93.421,310.734 a 0.75,0.75 0 0 1 -0.49,-1.318 c 1.246,-1.075 4.248,-2.449 6.695,0.042 a 0.75,0.75 0 1 1 -1.07,1.051 c -2.085,-2.123 -4.541,-0.047 -4.645,0.042 a 0.748,0.748 0 0 1 -0.49,0.183 z"
                     fill="#7a7a7a" />
                </g>
              </g>
            </g>
          </g>
        </g>
        <g
           id="Group_2097"
           data-name="Group 2097">
          <g
             id="Group_2096"
             data-name="Group 2096">
            <g
               id="Group_2095"
               data-name="Group 2095">
              <g
                 id="Group_2094"
                 data-name="Group 2094">
                <g
                   id="Group_2093"
                   data-name="Group 2093">
                  <path
                     id="Path_1116"
                     data-name="Path 1116"
                     d="M 67.91,318.487"
                     fill="none"
                     stroke="#1a1a1a"
                     stroke-linecap="round"
                     stroke-linejoin="round"
                     stroke-width="3" />
                </g>
              </g>
            </g>
          </g>
        </g>
      </g>
      <path
         id="Path_1117"
         data-name="Path 1117"
         d="m 107.064,300.949 -8.01,8.01 a 4.19,4.19 0 0 0 -2.649,-0.9 l 11.72,-11.721 a 0.75,0.75 0 1 0 -1.061,-1.06 l -13.643,13.645 -3.134,-3.134 a 22.169,22.169 0 0 0 6.532,-8.852 23.855,23.855 0 0 0 1.605,-9.342 v -0.289 a 6.577,6.577 0 0 1 1.312,-3.64 l 5.207,-1.3 a 0.75,0.75 0 0 0 0.4,-1.2 8.281,8.281 0 0 0 -5.024,-3.051 10.028,10.028 0 0 0 -6.9,-2.9 c -1.592,0 -6.436,0 -9.188,6.111 -1.14,2.535 -4.8,3.718 -5.157,3.828 -5.839,0.44 -18.846,23.251 -20.324,25.876 a 0.75,0.75 0 0 0 0.989,1.039 l 1.067,-0.534 -13.323,16.4 a 0.75,0.75 0 0 0 0.582,1.223 8.344,8.344 0 0 0 6.24,-3.1 l 11.453,-12.04 4.515,-2.258 a 12.99,12.99 0 0 0 6.138,1.8 h 1.058 l 5.024,6.281 -13.7,13.7 a 0.75,0.75 0 1 0 1.061,1.06 l 13.894,-13.894 a 2.166,2.166 0 0 1 1.8,1.753 l -11.082,11.088 a 0.75,0.75 0 1 0 1.06,1.06 L 86.865,323.27 v 0 l 9.921,-9.92 v 0 l 2.83,-2.829 v 0 l 8.508,-8.508 a 0.75024029,0.75024029 0 1 0 -1.061,-1.061 z m -9.088,9.089 -1.29,1.29 A 3.466,3.466 0 0 0 95.2,309.8 a 2.948,2.948 0 0 1 2.776,0.238 z m -8.843,8.842 a 4.206,4.206 0 0 0 -2.65,-0.9 l 7.19,-7.19 a 2.179,2.179 0 0 1 1.794,1.755 z m 7.791,-31.28 a 23.581,23.581 0 0 1 -0.8,6.7 c -0.021,-0.045 -0.046,-0.085 -0.067,-0.13 -0.133,-0.279 -0.271,-0.548 -0.418,-0.806 -0.019,-0.033 -0.036,-0.069 -0.055,-0.1 -0.168,-0.291 -0.344,-0.563 -0.522,-0.824 -0.051,-0.074 -0.1,-0.141 -0.151,-0.212 -0.136,-0.192 -0.271,-0.374 -0.407,-0.548 -0.05,-0.064 -0.1,-0.128 -0.149,-0.189 -0.175,-0.215 -0.347,-0.42 -0.511,-0.6 h 0.99 a 0.75,0.75 0 0 0 0.75,-0.75 v -4.252 a 0.729,0.729 0 0 0 -0.018,-0.161 4.826,4.826 0 0 0 -0.161,-0.551 c -0.01,-0.027 -0.017,-0.052 -0.027,-0.08 a 6.315,6.315 0 0 0 -0.253,-0.588 c -0.018,-0.037 -0.035,-0.073 -0.055,-0.11 a 6.742,6.742 0 0 0 -0.358,-0.617 c -0.021,-0.033 -0.045,-0.065 -0.068,-0.1 a 6.4,6.4 0 0 0 -0.489,-0.637 c -0.011,-0.013 -0.023,-0.025 -0.035,-0.037 a 6.31,6.31 0 0 0 -0.6,-0.588 c -0.026,-0.022 -0.049,-0.045 -0.075,-0.067 a 6.175,6.175 0 0 0 -0.722,-0.513 l -0.139,-0.084 a 6.151,6.151 0 0 0 -0.844,-0.4 c -0.053,-0.021 -0.108,-0.04 -0.163,-0.059 a 6.548,6.548 0 0 0 -1.006,-0.277 l -0.027,-0.008 c 0.07,-0.079 0.134,-0.157 0.215,-0.237 l 0.014,-0.015 a 5.016,5.016 0 0 1 0.457,-0.4 c 0.026,-0.02 0.051,-0.041 0.078,-0.061 a 4.155,4.155 0 0 1 0.531,-0.335 c 0.035,-0.019 0.071,-0.037 0.107,-0.054 a 3.459,3.459 0 0 1 0.624,-0.239 c 0.032,-0.009 0.066,-0.014 0.1,-0.022 0.034,-0.008 0.071,-0.007 0.1,-0.014 a 1.462,1.462 0 1 0 2.757,0.177 c 0.029,0.007 0.06,0.01 0.089,0.017 l 0.134,0.028 c 0.324,0.077 0.632,0.163 0.922,0.251 l 0.225,0.071 c 0.228,0.073 0.443,0.146 0.636,0.216 0.03,0.012 0.064,0.023 0.093,0.034 l -0.565,0.763 a 0.75,0.75 0 0 0 0.073,0.976 l 1.08,1.08 a 7.537,7.537 0 0 0 -1.3,4.059 z m -2.753,-7.424 c 0,0.046 -0.082,0.046 -0.082,0 a 0.041,0.041 0 1 1 0.082,0 z m 5.15,2.046 -0.66,-0.66 0.757,-1.024 v 0 l 0.472,-0.638 0.223,-0.3 a 6.623,6.623 0 0 1 3.226,1.618 z m -5.9,-5.506 a 8.821,8.821 0 0 1 5.452,2.037 l -0.311,0.42 c -0.071,-0.029 -0.156,-0.06 -0.234,-0.09 l -0.193,-0.074 c -0.183,-0.068 -0.378,-0.137 -0.588,-0.207 l -0.1,-0.033 c -0.179,-0.058 -0.365,-0.116 -0.559,-0.172 -0.079,-0.023 -0.161,-0.044 -0.242,-0.066 -0.16,-0.044 -0.321,-0.086 -0.489,-0.126 l -0.285,-0.064 c -0.165,-0.036 -0.331,-0.069 -0.5,-0.1 -0.1,-0.017 -0.2,-0.035 -0.3,-0.051 -0.182,-0.028 -0.366,-0.051 -0.552,-0.071 -0.089,-0.01 -0.177,-0.022 -0.268,-0.03 -0.274,-0.023 -0.55,-0.039 -0.827,-0.039 a 4.621,4.621 0 0 0 -0.812,0.078 c -0.056,0.009 -0.112,0.018 -0.167,0.03 a 4.709,4.709 0 0 0 -0.707,0.2 c -0.037,0.014 -0.072,0.031 -0.108,0.046 a 5.2,5.2 0 0 0 -0.577,0.276 c -0.035,0.02 -0.071,0.037 -0.105,0.058 a 5.685,5.685 0 0 0 -0.551,0.369 l -0.111,0.087 c -0.162,0.128 -0.316,0.26 -0.457,0.393 l -0.022,0.02 c -0.148,0.142 -0.28,0.284 -0.4,0.423 l -0.076,0.086 c -0.114,0.134 -0.218,0.262 -0.308,0.382 l -0.035,0.049 c -0.083,0.111 -0.154,0.213 -0.215,0.306 l -0.02,0.028 h -2.62 a 7.585,7.585 0 0 1 7.287,-4.163 z m -8.043,5.669 h 3.21 a 9.164,9.164 0 0 1 -1.12,6.677 c -0.065,0.1 -0.128,0.206 -0.2,0.309 -0.072,0.103 -0.146,0.2 -0.221,0.3 -0.045,0.058 -0.095,0.116 -0.141,0.174 -0.008,-0.038 -0.023,-0.072 -0.032,-0.11 a 6.283,6.283 0 0 0 -0.182,-0.616 c -0.019,-0.054 -0.035,-0.111 -0.056,-0.164 a 5.616,5.616 0 0 0 -0.323,-0.693 c -0.031,-0.054 -0.065,-0.106 -0.1,-0.159 a 5.38,5.38 0 0 0 -0.334,-0.492 c -0.044,-0.058 -0.088,-0.116 -0.134,-0.171 a 5.314,5.314 0 0 0 -0.526,-0.557 5.622,5.622 0 0 0 -0.636,-0.49 c -0.044,-0.03 -0.087,-0.06 -0.131,-0.088 a 6.4,6.4 0 0 0 -0.653,-0.366 c -0.041,-0.02 -0.081,-0.036 -0.121,-0.055 q -0.315,-0.145 -0.633,-0.257 c -0.027,-0.01 -0.053,-0.021 -0.08,-0.03 -0.228,-0.077 -0.454,-0.141 -0.677,-0.2 -0.022,-0.005 -0.044,-0.014 -0.065,-0.019 a 8.438,8.438 0 0 0 3.155,-2.991 z m -6.13,4.252 a 0.614,0.614 0 0 0 0.074,0 h 0.012 c 0.035,0 0.223,-0.017 0.524,-0.017 a 8.443,8.443 0 0 1 2.63,0.4 l 0.023,0.008 a 5.3,5.3 0 0 1 1.112,0.527 l 0.112,0.073 a 4.171,4.171 0 0 1 0.484,0.371 3.831,3.831 0 0 1 0.335,0.386 3.728,3.728 0 0 1 0.261,0.3 4.07,4.07 0 0 1 0.248,0.478 c 0.058,0.117 0.131,0.221 0.179,0.345 a 4.926,4.926 0 0 1 0.179,0.669 c 0.023,0.1 0.06,0.186 0.078,0.289 a 6.626,6.626 0 0 1 0.086,1.09 3.726,3.726 0 0 1 -0.124,0.928 c -0.935,3.621 -6.958,7.918 -11.5,10.618 -0.2,0.117 -0.392,0.231 -0.583,0.342 -0.383,0.223 -0.752,0.432 -1.1,0.627 -0.7,0.391 -1.337,0.724 -1.864,0.988 l -2.835,1.417 -2.579,1.29 -1.749,0.875 -1.958,0.979 c 5.63,-9.679 14.542,-22.981 17.955,-22.981 z m -26.055,38.42 a 0.722,0.722 0 0 0 -0.056,0.066 7.354,7.354 0 0 1 -3.259,2.246 l 12.665,-15.588 c 0,0.024 0,0.048 0,0.071 a 2.181,2.181 0 0 0 -0.021,0.342 c 0,0.034 0,0.067 0,0.1 a 2.154,2.154 0 0 0 0.071,0.421 c 0.008,0.029 0.02,0.056 0.029,0.085 a 2.07,2.07 0 0 0 0.137,0.328 c 0.018,0.036 0.037,0.072 0.058,0.107 a 1.981,1.981 0 0 0 0.782,0.774 c 0.022,0.013 0.039,0.035 0.061,0.047 z M 64.971,312.74 a 0.66,0.66 0 0 1 -0.855,-0.941 l 1.741,-2.785 1.3,-0.652 v 0.2 a 0.752,0.752 0 0 0 0.136,0.43 9.393,9.393 0 0 0 0.673,0.844 c 0.07,0.08 0.145,0.156 0.218,0.233 0.183,0.194 0.374,0.38 0.574,0.56 0.05,0.045 0.093,0.1 0.144,0.141 z m 12.11,-0.672 h -0.666 a 11.553,11.553 0 0 1 -5.683,-1.785 8.369,8.369 0 0 1 -2.073,-1.959 v -0.711 l 0.929,-0.465 0.2,-0.1 v 0 l 1.289,-0.645 c 0.04,-0.02 0.136,-0.068 0.281,-0.143 0.118,-0.06 0.276,-0.143 0.456,-0.238 l 0.123,-0.065 0.2,-0.1 0.19,-0.1 0.244,-0.133 0.2,-0.108 0.291,-0.162 0.205,-0.113 0.305,-0.173 0.241,-0.137 0.313,-0.181 0.274,-0.159 c 0.11,-0.064 0.224,-0.132 0.337,-0.2 l 0.281,-0.166 0.352,-0.225 0.3,-0.184 0.353,-0.219 c 0.108,-0.068 0.216,-0.134 0.326,-0.2 0.11,-0.066 0.244,-0.155 0.366,-0.233 l 0.332,-0.213 0.38,-0.25 c 0.111,-0.073 0.222,-0.145 0.333,-0.22 0.128,-0.086 0.257,-0.173 0.385,-0.261 l 0.341,-0.232 0.383,-0.269 c 0.115,-0.081 0.23,-0.161 0.345,-0.244 0.115,-0.083 0.256,-0.185 0.384,-0.279 0.128,-0.094 0.229,-0.167 0.343,-0.252 0.114,-0.085 0.253,-0.191 0.379,-0.287 0.126,-0.096 0.229,-0.174 0.343,-0.263 l 0.371,-0.293 q 0.169,-0.135 0.338,-0.271 c 0.122,-0.1 0.241,-0.2 0.362,-0.3 0.121,-0.1 0.22,-0.184 0.329,-0.278 0.109,-0.094 0.235,-0.2 0.351,-0.307 0.116,-0.107 0.214,-0.189 0.319,-0.285 0.105,-0.096 0.224,-0.207 0.334,-0.311 0.11,-0.104 0.207,-0.194 0.308,-0.293 0.101,-0.099 0.211,-0.208 0.315,-0.313 0.104,-0.105 0.2,-0.2 0.294,-0.3 0.094,-0.1 0.2,-0.21 0.295,-0.316 0.095,-0.106 0.185,-0.2 0.274,-0.3 0.089,-0.1 0.183,-0.212 0.271,-0.318 0.088,-0.106 0.173,-0.207 0.255,-0.311 0.082,-0.104 0.166,-0.212 0.246,-0.319 0.08,-0.107 0.155,-0.209 0.23,-0.313 0.075,-0.104 0.148,-0.215 0.219,-0.322 0.071,-0.107 0.137,-0.21 0.2,-0.316 0.063,-0.106 0.128,-0.213 0.188,-0.32 0.06,-0.107 0.118,-0.214 0.173,-0.32 0.055,-0.106 0.106,-0.213 0.155,-0.319 0.049,-0.106 0.1,-0.214 0.141,-0.322 0.041,-0.108 0.083,-0.211 0.12,-0.316 0.037,-0.105 0.072,-0.216 0.1,-0.324 0.028,-0.108 0.058,-0.209 0.083,-0.314 0.025,-0.105 0.046,-0.216 0.064,-0.323 0.018,-0.107 0.033,-0.207 0.044,-0.31 0,-0.051 0.017,-0.1 0.021,-0.154 a 10.786,10.786 0 0 0 1.276,-1.448 c 0.058,-0.079 0.111,-0.157 0.166,-0.236 0.14,-0.2 0.271,-0.4 0.391,-0.608 0.045,-0.076 0.092,-0.151 0.134,-0.227 0.15,-0.27 0.288,-0.539 0.407,-0.807 l 0.02,-0.051 c 0.111,-0.254 0.206,-0.507 0.291,-0.757 0.027,-0.08 0.051,-0.158 0.075,-0.236 q 0.094,-0.3 0.166,-0.594 c 0.017,-0.07 0.036,-0.14 0.052,-0.209 0.057,-0.257 0.1,-0.51 0.141,-0.756 0,-0.028 0.006,-0.054 0.01,-0.081 0.031,-0.222 0.053,-0.439 0.069,-0.652 0.005,-0.07 0.009,-0.138 0.013,-0.207 0.01,-0.177 0.016,-0.35 0.018,-0.518 0,-0.057 0,-0.114 0,-0.17 0,-0.215 -0.008,-0.423 -0.02,-0.621 0,-0.029 0,-0.056 -0.007,-0.085 -0.012,-0.17 -0.026,-0.331 -0.044,-0.485 -0.006,-0.054 -0.012,-0.1 -0.019,-0.157 -0.016,-0.133 -0.034,-0.258 -0.054,-0.377 -0.006,-0.036 -0.011,-0.073 -0.017,-0.108 l -0.006,-0.04 0.085,0.014 a 5.15,5.15 0 0 1 0.893,0.231 c 0.04,0.015 0.078,0.032 0.117,0.048 a 4.643,4.643 0 0 1 0.754,0.372 c 0.016,0.01 0.03,0.022 0.046,0.032 a 4.479,4.479 0 0 1 0.61,0.468 l 0.037,0.032 a 4.649,4.649 0 0 1 0.472,0.513 c 0.019,0.024 0.04,0.047 0.058,0.071 a 5,5 0 0 1 0.337,0.495 c 0.017,0.027 0.033,0.055 0.049,0.081 0.09,0.158 0.168,0.309 0.231,0.447 0.011,0.023 0.021,0.046 0.031,0.069 0.059,0.134 0.109,0.26 0.145,0.363 l 0.013,0.037 c 0.034,0.1 0.061,0.187 0.075,0.24 v 3.41 H 92 a 0.75,0.75 0 0 0 -0.468,1.336 l 0.087,0.074 0.055,0.046 0.049,0.044 0.108,0.1 0.082,0.077 c 0.039,0.036 0.077,0.071 0.121,0.114 0.044,0.043 0.07,0.069 0.1,0.1 l 0.14,0.137 0.12,0.125 c 0.051,0.053 0.1,0.1 0.154,0.162 0.054,0.062 0.087,0.1 0.131,0.143 0.056,0.063 0.112,0.124 0.171,0.191 0.044,0.051 0.09,0.106 0.135,0.16 0.06,0.07 0.119,0.139 0.18,0.213 0.048,0.059 0.1,0.123 0.145,0.185 0.045,0.062 0.12,0.151 0.18,0.231 0.048,0.065 0.1,0.134 0.145,0.2 0.06,0.083 0.12,0.166 0.18,0.252 0.06,0.086 0.1,0.148 0.146,0.222 0.046,0.074 0.115,0.177 0.172,0.269 0.057,0.092 0.094,0.159 0.141,0.238 0.055,0.1 0.11,0.189 0.163,0.287 0.053,0.098 0.088,0.169 0.132,0.255 0.044,0.086 0.1,0.2 0.15,0.3 0.05,0.1 0.08,0.18 0.119,0.271 0.039,0.091 0.09,0.209 0.132,0.316 0.042,0.107 0.07,0.191 0.1,0.287 0.03,0.096 0.076,0.218 0.11,0.329 0.034,0.111 0.056,0.2 0.083,0.3 0.021,0.08 0.041,0.16 0.06,0.241 -2.693,6.5 -8.656,11.241 -17.73,14.085 a 0.751,0.751 0 0 0 -0.525,0.716 z m 1.5,0.487 v -0.606 a 36.481,36.481 0 0 0 10.52,-5.226 l 3.26,3.26 -8.8,8.8 z m 6.7,7.167 a 2.948,2.948 0 0 1 2.775,0.237 l -1.288,1.288 a 3.462,3.462 0 0 0 -1.489,-1.525 z"
         fill="#1a1a1a" />
    </g>
    <text
       xml:space="preserve"
       style="font-style:normal;font-variant:normal;font-weight:500;font-stretch:normal;font-size:16.5109px;line-height:0.55;font-family:'CC Accidenz Commons';-inkscape-font-specification:'CC Accidenz Commons, Medium';font-variant-ligatures:normal;font-variant-caps:normal;font-variant-numeric:normal;font-variant-east-asian:normal;text-align:start;letter-spacing:-0.934993px;text-anchor:start;display:inline;overflow:visible;fill:#000000;stroke:none;stroke-width:0.280497;stroke-dasharray:none;image-rendering:auto"
       x="-29.907507"
       y="117.53922"
       id="text32"
       inkscape:label="text-database"
       transform="rotate(-46.705441)"><tspan
         style="line-height:0.55;text-align:start;letter-spacing:-0.934993px;text-anchor:start;fill:#000000;stroke:none;stroke-width:0.280497;stroke-dasharray:none"
         sodipodi:role="line"
         id="tspan35"
         x="-29.907507"
         y="117.53922" /><tspan
         style="line-height:0.55;text-align:start;letter-spacing:-0.934993px;text-anchor:start;fill:#cc0066;fill-opacity:1;stroke:#000000;stroke-width:0.280497;stroke-dasharray:none;stroke-opacity:1"
         sodipodi:role="line"
         x="-29.907507"
         y="126.62022"
         id="tspan36">M</tspan><tspan
         sodipodi:role="line"
         style="line-height:0.55;text-align:start;letter-spacing:-0.934993px;text-anchor:start;fill:#000000;stroke:#000000;stroke-width:0.280497;stroke-dasharray:none;stroke-opacity:1"
         x="-29.907507"
         y="135.70122"
         id="tspan34" /></text>
    <text
       xml:space="preserve"
       style="font-style:normal;font-variant:normal;font-weight:bold;font-stretch:normal;font-size:17.856px;line-height:0.95;font-family:'Segoe UI';-inkscape-font-specification:'Segoe UI Bold';text-align:center;letter-spacing:-0.808934px;text-anchor:middle;fill:#ffcc00;fill-opacity:1;stroke:#000000;stroke-width:0.30335;stroke-linecap:round;stroke-linejoin:round;stroke-dasharray:none;stroke-opacity:1"
       x="-18.969551"
       y="128.01631"
       id="text3"
       transform="rotate(-47.416183)"><tspan
         sodipodi:role="line"
         id="tspan3"
         style="font-size:17.856px;text-align:start;letter-spacing:-0.808934px;text-anchor:start;stroke-width:0.30335;stroke-dasharray:none"
         x="-18.969551"
         y="128.01631">U</tspan></text>
    <text
       xml:space="preserve"
       style="font-style:normal;font-variant:normal;font-weight:bold;font-stretch:normal;font-size:17.9959px;line-height:0.95;font-family:'Segoe UI';-inkscape-font-specification:'Segoe UI Bold';text-align:center;letter-spacing:-0.815268px;text-anchor:middle;fill:#ff6666;fill-opacity:1;stroke:#000000;stroke-width:0.305726;stroke-linecap:round;stroke-linejoin:round;stroke-dasharray:none;stroke-opacity:1"
       x="-2.3905015"
       y="126.9934"
       id="text3-5"
       transform="rotate(-45.882076)"><tspan
         sodipodi:role="line"
         id="tspan3-4"
         style="font-size:17.9959px;text-align:start;letter-spacing:-0.815268px;text-anchor:start;fill:#ff6666;fill-opacity:1;stroke-width:0.305726;stroke-dasharray:none"
         x="-2.3905015"
         y="126.9934"
         dy="1.205568">S</tspan></text>
  </g>
</svg>
