<?xml version="1.0" encoding="UTF-8" standalone="no"?>
<svg
   width="200mm"
   height="200mm"
   viewBox="0 0 200 200"
   version="1.1"
   id="svg1"
   sodipodi:docname="MUSwizard.svg"
   inkscape:version="1.3 (0e150ed6c4, 2023-07-21)"
   xml:space="preserve"
   xmlns:inkscape="http://www.inkscape.org/namespaces/inkscape"
   xmlns:sodipodi="http://sodipodi.sourceforge.net/DTD/sodipodi-0.dtd"
   xmlns="http://www.w3.org/2000/svg"
   xmlns:svg="http://www.w3.org/2000/svg"><sodipodi:namedview
     id="namedview1"
     pagecolor="#ffffff"
     bordercolor="#000000"
     borderopacity="0.25"
     inkscape:showpageshadow="2"
     inkscape:pageopacity="0.0"
     inkscape:pagecheckerboard="0"
     inkscape:deskcolor="#d1d1d1"
     inkscape:document-units="mm"
     showguides="true"
     showgrid="false"
     inkscape:zoom="1.774759"
     inkscape:cx="300.88593"
     inkscape:cy="420.05704"
     inkscape:window-width="1920"
     inkscape:window-height="1009"
     inkscape:window-x="-8"
     inkscape:window-y="-8"
     inkscape:window-maximized="1"
     inkscape:current-layer="color"><inkscape:grid
       id="grid2"
       units="mm"
       originx="0"
       originy="0"
       spacingx="0.99999997"
       spacingy="0.99999997"
       empcolor="#0099e5"
       empopacity="0.30196078"
       color="#0099e5"
       opacity="0.14901961"
       empspacing="5"
       dotted="false"
       gridanglex="30"
       gridanglez="30"
       visible="false" /></sodipodi:namedview><defs
     id="defs1" /><g
     id="mussmalllogo"
     transform="translate(-42.870252,-59.467692)"
     inkscape:label="mussmalllogo"><g
       id="color"
       data-name="Group 2098"
       style="display:inline;fill:#000000"
       inkscape:label="color"
       transform="matrix(0.70888728,0,0,0.70888728,81.038973,-56.384943)"><path
         id="neck"
         data-name="Path 1103"
         d="m 89.169,281.637 h -4.252 c -1.355,3.01 -5.669,4.252 -5.669,4.252 0,0 7.087,-0.711 7.087,5.669 v 0 a 9.734,9.734 0 0 0 2.834,-9.921 z"
         fill="#be8a66"
         style="display:inline;fill:#ffcc00;fill-opacity:1"
         transform="translate(-1.3107396e-6)"
         inkscape:label="neck" /><path
         id="head"
         data-name="Path 1102"
         d="m 93.421,275.968 c -2.016,0 -6.058,0.237 -8.5,5.669 h 4.252 c 0,0 1.486,-2.835 4.252,-2.835 a 14.69,14.69 0 0 1 5.394,1.292 l 0.956,-1.292 c 0,0 0.067,0 0.178,0.017 a 9.071,9.071 0 0 0 -6.532,-2.851 z"
         fill="#b3b3b3"
         style="display:inline;fill:#1a1a1a;fill-opacity:1"
         transform="translate(-1.3107396e-6)"
         inkscape:label="head" /><path
         id="face"
         data-name="Path 1104"
         d="m 99.267,283.01 -0.176,0.044 -1.418,-1.417 1.142,-1.543 a 14.69,14.69 0 0 0 -5.394,-1.292 c -2.766,0 -4.252,2.835 -4.252,2.835 a 5.664,5.664 0 0 1 5.67,4.252 v 4.252 H 92 a 12.734,12.734 0 0 1 4.119,6.517 23.622,23.622 0 0 0 1.55,-9.352 7.6,7.6 0 0 1 1.598,-4.296 z"
         fill="#333333"
         style="display:inline;fill:#ff6666;fill-opacity:1"
         transform="translate(-1.3107396e-6)"
         inkscape:label="face" /><path
         id="tail"
         data-name="Path 1108"
         d="m 63.583,309.312 -15.516,19.1 a 7.645,7.645 0 0 0 5.669,-2.835 l 11.571,-12.163 a 1.411,1.411 0 0 1 -1.827,-2.01 l 1.853,-2.964 v 0 z"
         fill="#be8a66"
         style="display:none;fill:#ffcc00;fill-opacity:1"
         transform="translate(-1.3107396e-6)"
         inkscape:label="tail" /><path
         id="branch"
         data-name="Path 1111"
         d="M 107.595,295.81 69.327,334.078 H 75 l 32.6,-32.6 z"
         fill="#fda654"
         style="display:inline;fill:#ff6666;fill-opacity:1;stroke:none;stroke-width:0.104133;stroke-dasharray:none;stroke-opacity:1"
         transform="translate(-1.3107396e-6)"
         inkscape:label="branch" /><g
         style="display:inline;fill:#000000"
         id="g1"
         transform="matrix(1.2818579,0.01613067,-0.01713015,1.3612857,91.611072,277.41939)"><path
           d="M 9.5,9.625 8.594,12.531 7.719,9.625 4.813,8.719 7.719,7.844 8.594,4.906 9.5,7.844 12.406,8.719 Z m 5.063,-1.594 -0.438,1.469 -0.5,-1.469 -1.438,-0.469 1.438,-0.438 0.5,-1.438 0.438,1.438 1.438,0.438 z M 0.281,24 18.187,6.625 c 0.125,-0.156 0.313,-0.25 0.531,-0.25 0.281,-0.031 0.563,0.063 0.781,0.281 0.094,0.063 0.219,0.188 0.406,0.344 0.344,0.313 0.719,0.688 1,1.063 0.125,0.188 0.188,0.344 0.188,0.5 0.031,0.313 -0.063,0.594 -0.25,0.781 L 2.937,26.782 C 2.781,26.938 2.593,27.001 2.374,27.032 2.093,27.063 1.811,26.969 1.593,26.751 1.499,26.657 1.374,26.563 1.187,26.376 0.843,26.095 0.468,25.72 0.218,25.313 0.093,25.125 0.03,24.938 -0.001,24.782 -0.032,24.469 0.062,24.219 0.28,24.001 Z M 14.656,11.375 15.969,12.719 20.125,8.688 18.812,7.313 Z M 5.938,13.156 5.532,14.594 5.094,13.156 3.656,12.687 5.094,12.249 5.532,10.78 l 0.406,1.469 1.5,0.438 z m 14.562,-1.093 0.469,1.469 1.438,0.438 -1.438,0.469 -0.469,1.438 -0.469,-1.438 -1.438,-0.469 1.438,-0.438 z"
           id="path1"
           inkscape:label="path1" /><path
           style="display:inline;fill:#ff6666;fill-opacity:1;stroke:none;stroke-width:0.313167;stroke-linecap:round;stroke-linejoin:round;stroke-dasharray:none;stroke-opacity:1"
           d="m 126.84159,278.37468 1.58221,1.61957 -17.32365,16.90913 -1.65693,-1.73285 17.39837,-16.79585"
           id="path2"
           transform="matrix(0.8298479,0,0,0.8298479,-90.603226,-219.63365)" /></g><path
         id="belly"
         data-name="Path 1110"
         d="m 92,290.141 h 2.835 v -4.252 a 5.664,5.664 0 0 0 -5.67,-4.252 9.734,9.734 0 0 1 -2.834,9.921 c 0,6.38 -15.591,14.173 -15.591,14.173 l -1.288,0.645 -1.546,0.773 v 1.417 a 9.034,9.034 0 0 0 2.406,2.34 12.2,12.2 0 0 0 6.1,1.912 H 77.83 V 311.4 c 11.347,-3.557 16.21,-9.543 18.292,-14.743 A 12.734,12.734 0 0 0 92,290.141 Z"
         fill="#e5e5e5"
         style="display:inline;fill:#ffffff;fill-opacity:1"
         transform="translate(-1.3107396e-6)"
         inkscape:label="belly" /></g><g
       id="bird"
       data-name="Group 2099"
       transform="matrix(0.70888727,0,0,0.70888727,9.7508877,-135.10164)"
       style="display:inline;fill:#000000"
       inkscape:label="bird"><path
         style="display:inline;fill:#ffcc00;fill-opacity:1;stroke:#000000;stroke-width:1.26959;stroke-dasharray:none;stroke-opacity:0.989975"
         d="m 147.69281,438.70413 c -1.39841,-0.23724 17.35793,-19.2816 17.35793,-19.2816 l 3.38639,1.57544 c 0,0 -9.36726,11.69582 -15.5391,15.72031 -1.55556,1.01435 -3.80681,2.22308 -5.20522,1.98585 z"
         id="tail_separate"
         inkscape:label="tail_separate"
         inkscape:transform-center-x="5.25024"
         inkscape:transform-center-y="5.7703579"
         sodipodi:nodetypes="zccsz" /><path
         id="butt"
         data-name="Path 1106"
         d="m 163.51336,421.91462 a 1.411,1.411 0 0 0 1.827,2.01 l 5.009,-2.505 a 9.034,9.034 0 0 1 -2.406,-2.34 v -1.417 l -2.577,1.288 z"
         fill="#b3b3b3"
         style="display:inline;fill:#ff6666;fill-opacity:1"
         inkscape:label="butt" /><path
         id="outline"
         data-name="Path 1117"
         d="m 207.09736,411.46362 -8.01,8.01 c -0.7538,-0.59464 -1.68896,-0.91236 -2.649,-0.9 l 11.72,-11.721 c 0.73156,-0.70724 -0.35445,-1.79222 -1.061,-1.06 l -13.643,13.645 -3.134,-3.134 c 2.8865,-2.35498 5.133,-5.39938 6.532,-8.852 1.15452,-2.97529 1.7003,-6.15199 1.605,-9.342 v -0.289 c 0.0625,-1.31744 0.51959,-2.58566 1.312,-3.64 -0.98689,-0.68912 0.10983,-5.22208 0.583,-5.551 -1.83954,-1.82094 -4.31192,-2.86006 -6.9,-2.9 -1.592,0 -6.436,0 -9.188,6.111 -1.14,2.535 -4.8,3.718 -5.157,3.828 -5.839,0.44 -18.846,23.251 -20.324,25.876 -0.36337,0.64458 0.3273,1.37016 0.989,1.039 l 1.067,-0.534 c 0.42923,-0.94182 3.10405,3.6696 4.952,2.483 l 4.515,-2.258 c 1.86399,1.10224 3.97395,1.721 6.138,1.8 h 1.058 l 5.024,6.281 -13.7,13.7 c -0.73155,0.70724 0.35446,1.79222 1.061,1.06 l 13.894,-13.894 c 0.91224,0.14108 1.63484,0.84481 1.8,1.753 l -11.082,11.088 c -0.75789,0.70621 0.35379,1.81789 1.06,1.06 l 11.339,-11.338 v 0 l 9.921,-9.92 v 0 l 2.83,-2.829 v 0 l 8.508,-8.508 c 0.70733,-0.70733 -0.35367,-1.76833 -1.061,-1.061 z m -9.088,9.089 -1.29,1.29 c -0.32254,-0.65277 -0.84246,-1.18739 -1.486,-1.528 0.90681,-0.39053 1.94891,-0.30119 2.776,0.238 z m -8.843,8.842 c -0.7547,-0.5937 -1.68983,-0.9113 -2.65,-0.9 l 7.19,-7.19 c 0.90868,0.14732 1.62674,0.84978 1.794,1.755 z m 7.791,-31.28 c 0.0559,2.26014 -0.21353,4.51656 -0.8,6.7 -0.021,-0.045 -0.046,-0.085 -0.067,-0.13 -0.133,-0.279 -0.271,-0.548 -0.418,-0.806 -0.019,-0.033 -0.036,-0.069 -0.055,-0.1 -0.168,-0.291 -0.344,-0.563 -0.522,-0.824 -0.051,-0.074 -0.1,-0.141 -0.151,-0.212 -0.136,-0.192 -0.271,-0.374 -0.407,-0.548 -0.05,-0.064 -0.1,-0.128 -0.149,-0.189 -0.175,-0.215 -0.347,-0.42 -0.511,-0.6 h 0.99 c 0.41422,0 0.75,-0.33579 0.75,-0.75 v -4.252 c 0,-0.0542 -0.006,-0.10817 -0.018,-0.161 -0.0427,-0.1867 -0.0965,-0.37069 -0.161,-0.551 -0.01,-0.027 -0.017,-0.052 -0.027,-0.08 -0.0743,-0.20015 -0.15878,-0.3964 -0.253,-0.588 -0.018,-0.037 -0.035,-0.073 -0.055,-0.11 -0.10836,-0.21184 -0.22786,-0.41779 -0.358,-0.617 -0.021,-0.033 -0.045,-0.065 -0.068,-0.1 -0.1495,-0.22236 -0.31282,-0.43511 -0.489,-0.637 -0.011,-0.013 -0.023,-0.025 -0.035,-0.037 -0.18671,-0.20911 -0.38716,-0.40555 -0.6,-0.588 -0.026,-0.022 -0.049,-0.045 -0.075,-0.067 -0.22807,-0.18806 -0.46936,-0.3595 -0.722,-0.513 l -0.139,-0.084 c -0.27079,-0.15453 -0.55293,-0.28825 -0.844,-0.4 -0.053,-0.021 -0.108,-0.04 -0.163,-0.059 -0.32743,-0.11895 -0.66383,-0.21157 -1.006,-0.277 l -0.027,-0.008 c 0.07,-0.079 0.134,-0.157 0.215,-0.237 l 0.014,-0.015 c 0.14412,-0.14244 0.29673,-0.27602 0.457,-0.4 0.026,-0.02 0.051,-0.041 0.078,-0.061 0.1683,-0.1249 0.34581,-0.23689 0.531,-0.335 0.035,-0.019 0.071,-0.037 0.107,-0.054 0.1998,-0.0996 0.40878,-0.17966 0.624,-0.239 0.032,-0.009 0.066,-0.014 0.1,-0.022 0.034,-0.008 0.071,-0.007 0.1,-0.014 -0.71917,1.7113 3.25144,1.96622 2.757,0.177 0.029,0.007 0.06,0.01 0.089,0.017 l 0.134,0.028 c 0.324,0.077 0.632,0.163 0.922,0.251 l 0.225,0.071 c 0.228,0.073 0.443,0.146 0.636,0.216 0.03,0.012 0.064,0.023 0.093,0.034 l -0.565,0.763 c -0.22054,0.29857 -0.1895,0.71356 0.073,0.976 l 1.08,1.08 c -0.81483,1.19975 -1.26621,2.6091 -1.3,4.059 z m -2.753,-7.424 c 0,0.046 -0.082,0.046 -0.082,0 0,-0.0547 0.082,-0.0547 0.082,0 z m -0.75,-3.46 c 1.99545,0.0426 3.91746,0.76075 5.452,2.037 l -0.311,0.42 c -0.071,-0.029 -0.156,-0.06 -0.234,-0.09 l -0.193,-0.074 c -0.183,-0.068 -0.378,-0.137 -0.588,-0.207 l -0.1,-0.033 c -0.179,-0.058 -0.365,-0.116 -0.559,-0.172 -0.079,-0.023 -0.161,-0.044 -0.242,-0.066 -0.16,-0.044 -0.321,-0.086 -0.489,-0.126 l -0.285,-0.064 c -0.165,-0.036 -0.331,-0.069 -0.5,-0.1 -0.1,-0.017 -0.2,-0.035 -0.3,-0.051 -0.182,-0.028 -0.366,-0.051 -0.552,-0.071 -0.089,-0.01 -0.177,-0.022 -0.268,-0.03 -0.274,-0.023 -0.55,-0.039 -0.827,-0.039 -0.27243,0.002 -0.54416,0.0281 -0.812,0.078 -0.056,0.009 -0.112,0.018 -0.167,0.03 -0.24051,0.0481 -0.4769,0.11502 -0.707,0.2 -0.037,0.014 -0.072,0.031 -0.108,0.046 -0.19781,0.0801 -0.39051,0.17225 -0.577,0.276 -0.035,0.02 -0.071,0.037 -0.105,0.058 -0.19069,0.11217 -0.37467,0.23538 -0.551,0.369 l -0.111,0.087 c -0.162,0.128 -0.316,0.26 -0.457,0.393 l -0.022,0.02 c -0.148,0.142 -0.28,0.284 -0.4,0.423 l -0.076,0.086 c -0.114,0.134 -0.218,0.262 -0.308,0.382 l -0.035,0.049 c -0.083,0.111 -0.154,0.213 -0.215,0.306 l -0.02,0.028 h -2.62 c 1.37015,-2.72743 4.24164,-4.36789 7.287,-4.163 z m -8.043,5.669 h 3.21 c 0.49265,2.28704 0.0919,4.67589 -1.12,6.677 -0.065,0.1 -0.128,0.206 -0.2,0.309 -0.072,0.103 -0.146,0.2 -0.221,0.3 -0.045,0.058 -0.095,0.116 -0.141,0.174 -0.008,-0.038 -0.023,-0.072 -0.032,-0.11 -0.0501,-0.2083 -0.11087,-0.4139 -0.182,-0.616 -0.019,-0.054 -0.035,-0.111 -0.056,-0.164 -0.0918,-0.23807 -0.19971,-0.46961 -0.323,-0.693 -0.031,-0.054 -0.065,-0.106 -0.1,-0.159 -0.10218,-0.17003 -0.21368,-0.33428 -0.334,-0.492 -0.044,-0.058 -0.088,-0.116 -0.134,-0.171 -0.1617,-0.19808 -0.33749,-0.38423 -0.526,-0.557 -0.20005,-0.17828 -0.41259,-0.34203 -0.636,-0.49 -0.044,-0.03 -0.087,-0.06 -0.131,-0.088 -0.21034,-0.13464 -0.42838,-0.25685 -0.653,-0.366 -0.041,-0.02 -0.081,-0.036 -0.121,-0.055 -0.21,-0.0967 -0.421,-0.18233 -0.633,-0.257 -0.027,-0.01 -0.053,-0.021 -0.08,-0.03 -0.228,-0.077 -0.454,-0.141 -0.677,-0.2 -0.022,-0.005 -0.044,-0.014 -0.065,-0.019 1.29486,-0.70432 2.38263,-1.73554 3.155,-2.991 z m -6.13,4.252 c 0.0246,0.001 0.0494,0.001 0.074,0 h 0.012 c 0.035,0 0.223,-0.017 0.524,-0.017 0.8923,-0.006 1.77998,0.12853 2.63,0.4 l 0.023,0.008 c 0.38987,0.13189 0.76306,0.30875 1.112,0.527 l 0.112,0.073 c 0.17017,0.11169 0.33194,0.23569 0.484,0.371 0.12014,0.12107 0.23205,0.25002 0.335,0.386 0.0923,0.0953 0.1794,0.19543 0.261,0.3 0.0931,0.15368 0.17598,0.31337 0.248,0.478 0.058,0.117 0.131,0.221 0.179,0.345 0.0753,0.21852 0.1351,0.44208 0.179,0.669 0.023,0.1 0.06,0.186 0.078,0.289 0.0587,0.36034 0.0874,0.72492 0.086,1.09 -0.002,0.31332 -0.0438,0.62511 -0.124,0.928 -0.935,3.621 -6.958,7.918 -11.5,10.618 -0.2,0.117 -0.392,0.231 -0.583,0.342 -0.383,0.223 -0.752,0.432 -1.1,0.627 -0.7,0.391 -1.337,0.724 -1.864,0.988 l -2.835,1.417 -2.579,1.29 -1.749,0.875 -1.958,0.979 c 5.63,-9.679 14.542,-22.981 17.955,-22.981 z m -16.705,25.144 v 0.071 c -0.016,0.11327 -0.023,0.22763 -0.021,0.342 v 0.1 z m 2.428,0.959 c -0.59699,0.29981 -1.21047,-0.37539 -0.855,-0.941 l 1.741,-2.785 1.3,-0.652 v 0.2 c 2.8e-4,0.15387 0.0477,0.30396 0.136,0.43 0.20797,0.294 0.43268,0.5758 0.673,0.844 0.07,0.08 0.145,0.156 0.218,0.233 0.183,0.194 0.374,0.38 0.574,0.56 0.05,0.045 0.093,0.1 0.144,0.141 z m 12.11,-0.672 h -0.666 c -2.01779,-0.088 -3.97726,-0.70347 -5.683,-1.785 -0.798,-0.52957 -1.49918,-1.19219 -2.073,-1.959 v -0.711 l 0.929,-0.465 0.2,-0.1 v 0 l 1.289,-0.645 c 0.04,-0.02 0.136,-0.068 0.281,-0.143 0.118,-0.06 0.276,-0.143 0.456,-0.238 l 0.123,-0.065 0.2,-0.1 0.19,-0.1 0.244,-0.133 0.2,-0.108 0.291,-0.162 0.205,-0.113 0.305,-0.173 0.241,-0.137 0.313,-0.181 0.274,-0.159 c 0.11,-0.064 0.224,-0.132 0.337,-0.2 l 0.281,-0.166 0.352,-0.225 0.3,-0.184 0.353,-0.219 c 0.108,-0.068 0.216,-0.134 0.326,-0.2 0.11,-0.066 0.244,-0.155 0.366,-0.233 l 0.332,-0.213 0.38,-0.25 c 0.111,-0.073 0.222,-0.145 0.333,-0.22 0.128,-0.086 0.257,-0.173 0.385,-0.261 l 0.341,-0.232 0.383,-0.269 c 0.115,-0.081 0.23,-0.161 0.345,-0.244 0.115,-0.083 0.256,-0.185 0.384,-0.279 0.128,-0.094 0.229,-0.167 0.343,-0.252 0.114,-0.085 0.253,-0.191 0.379,-0.287 0.126,-0.096 0.229,-0.174 0.343,-0.263 l 0.371,-0.293 c 0.11267,-0.09 0.22534,-0.18033 0.338,-0.271 0.122,-0.1 0.241,-0.2 0.362,-0.3 0.121,-0.1 0.22,-0.184 0.329,-0.278 0.109,-0.094 0.235,-0.2 0.351,-0.307 0.116,-0.107 0.214,-0.189 0.319,-0.285 0.105,-0.096 0.224,-0.207 0.334,-0.311 0.11,-0.104 0.207,-0.194 0.308,-0.293 0.101,-0.099 0.211,-0.208 0.315,-0.313 0.104,-0.105 0.2,-0.2 0.294,-0.3 0.094,-0.1 0.2,-0.21 0.295,-0.316 0.095,-0.106 0.185,-0.2 0.274,-0.3 0.089,-0.1 0.183,-0.212 0.271,-0.318 0.088,-0.106 0.173,-0.207 0.255,-0.311 0.082,-0.104 0.166,-0.212 0.246,-0.319 0.08,-0.107 0.155,-0.209 0.23,-0.313 0.075,-0.104 0.148,-0.215 0.219,-0.322 0.071,-0.107 0.137,-0.21 0.2,-0.316 0.063,-0.106 0.128,-0.213 0.188,-0.32 0.06,-0.107 0.118,-0.214 0.173,-0.32 0.055,-0.106 0.106,-0.213 0.155,-0.319 0.049,-0.106 0.1,-0.214 0.141,-0.322 0.041,-0.108 0.083,-0.211 0.12,-0.316 0.037,-0.105 0.072,-0.216 0.1,-0.324 0.028,-0.108 0.058,-0.209 0.083,-0.314 0.025,-0.105 0.046,-0.216 0.064,-0.323 0.018,-0.107 0.033,-0.207 0.044,-0.31 0,-0.051 0.017,-0.1 0.021,-0.154 0.46775,-0.44357 0.89479,-0.92817 1.276,-1.448 0.058,-0.079 0.111,-0.157 0.166,-0.236 0.14,-0.2 0.271,-0.4 0.391,-0.608 0.045,-0.076 0.092,-0.151 0.134,-0.227 0.15,-0.27 0.288,-0.539 0.407,-0.807 l 0.02,-0.051 c 0.111,-0.254 0.206,-0.507 0.291,-0.757 0.027,-0.08 0.051,-0.158 0.075,-0.236 0.0627,-0.2 0.118,-0.398 0.166,-0.594 0.017,-0.07 0.036,-0.14 0.052,-0.209 0.057,-0.257 0.1,-0.51 0.141,-0.756 0,-0.028 0.006,-0.054 0.01,-0.081 0.031,-0.222 0.053,-0.439 0.069,-0.652 0.005,-0.07 0.009,-0.138 0.013,-0.207 0.01,-0.177 0.016,-0.35 0.018,-0.518 v -0.17 c 0,-0.215 -0.008,-0.423 -0.02,-0.621 0,-0.029 0,-0.056 -0.007,-0.085 -0.012,-0.17 -0.026,-0.331 -0.044,-0.485 -0.006,-0.054 -0.012,-0.1 -0.019,-0.157 -0.016,-0.133 -0.034,-0.258 -0.054,-0.377 -0.006,-0.036 -0.011,-0.073 -0.017,-0.108 l -0.006,-0.04 0.085,0.014 c 0.30398,0.0501 0.60284,0.12744 0.893,0.231 0.04,0.015 0.078,0.032 0.117,0.048 0.26207,0.10094 0.51444,0.22545 0.754,0.372 0.016,0.01 0.03,0.022 0.046,0.032 0.21637,0.13823 0.42046,0.2948 0.61,0.468 l 0.037,0.032 c 0.16995,0.15895 0.32773,0.33043 0.472,0.513 0.019,0.024 0.04,0.047 0.058,0.071 0.12212,0.15812 0.23466,0.32342 0.337,0.495 0.017,0.027 0.033,0.055 0.049,0.081 0.09,0.158 0.168,0.309 0.231,0.447 0.011,0.023 0.021,0.046 0.031,0.069 0.059,0.134 0.109,0.26 0.145,0.363 l 0.013,0.037 c 0.034,0.1 0.061,0.187 0.075,0.24 v 3.41 h -2.078 c -0.70919,8e-5 -1.02212,0.89338 -0.468,1.336 l 0.087,0.074 0.055,0.046 0.049,0.044 0.108,0.1 0.082,0.077 c 0.039,0.036 0.077,0.071 0.121,0.114 0.044,0.043 0.07,0.069 0.1,0.1 l 0.14,0.137 0.12,0.125 c 0.051,0.053 0.1,0.1 0.154,0.162 0.054,0.062 0.087,0.1 0.131,0.143 0.056,0.063 0.112,0.124 0.171,0.191 0.044,0.051 0.09,0.106 0.135,0.16 0.06,0.07 0.119,0.139 0.18,0.213 0.048,0.059 0.1,0.123 0.145,0.185 0.045,0.062 0.12,0.151 0.18,0.231 0.048,0.065 0.1,0.134 0.145,0.2 0.06,0.083 0.12,0.166 0.18,0.252 0.06,0.086 0.1,0.148 0.146,0.222 0.046,0.074 0.115,0.177 0.172,0.269 0.057,0.092 0.094,0.159 0.141,0.238 0.055,0.1 0.11,0.189 0.163,0.287 0.053,0.098 0.088,0.169 0.132,0.255 0.044,0.086 0.1,0.2 0.15,0.3 0.05,0.1 0.08,0.18 0.119,0.271 0.039,0.091 0.09,0.209 0.132,0.316 0.042,0.107 0.07,0.191 0.1,0.287 0.03,0.096 0.076,0.218 0.11,0.329 0.034,0.111 0.056,0.2 0.083,0.3 0.021,0.08 0.041,0.16 0.06,0.241 -2.693,6.5 -8.656,11.241 -17.73,14.085 -0.31244,0.0986 -0.52492,0.38837 -0.525,0.716 z m 1.5,0.487 v -0.606 c 3.76594,-1.1623 7.31865,-2.92717 10.52,-5.226 l 3.26,3.26 -8.8,8.8 z m 6.7,7.167 c 0.90636,-0.39047 1.94798,-0.30151 2.775,0.237 l -1.288,1.288 c -0.32361,-0.65227 -0.84464,-1.1859 -1.489,-1.525 z"
         fill="#1a1a1a"
         style="display:inline;stroke-width:0.294828;stroke-dasharray:none"
         sodipodi:nodetypes="ccccccccccccccccsccccccccccccccccccscccccccccccccccccccccsssccccccccccccccccccccccccscccccccccccccsssccccccccccccccccccccccccccccccccccccccscccsccccccccccccccccccscccccccccccccccccccccccccccccccccccccscccccccccccccccccccccccccccccscccccccsssscccsssssssssssssssssssssssscccccccccccccccccscccccccccccccccccccccccccccccccscccsccccsccssscssssssscccccccccccccccc" /><path
         style="display:inline;fill:#cc0066;fill-opacity:1;stroke:#000000;stroke-width:1.55173;stroke-dasharray:none;stroke-opacity:1"
         d="m 155.12132,415.85978 c 4.24929,-4.90503 17.52098,-19.11103 24.50753,-19.76245 6.98654,-0.65144 8.19391,6.62656 4.89002,9.55395 -8.04881,6.93622 -25.56262,10.19728 -29.39755,10.2085 z"
         id="wing_separate"
         sodipodi:nodetypes="czcc"
         inkscape:label="wing_separate"
         inkscape:transform-center-x="7.2300838"
         inkscape:transform-center-y="3.560963" /><path
         style="display:inline;fill:#ffcc00;fill-opacity:1;stroke:#000000;stroke-width:1.38859;stroke-dasharray:none;stroke-opacity:0.989975"
         d="m 205.27914,392.03232 c -1.74789,-2.10761 -5.04532,-2.99978 -5.58575,-2.72245 0,0 -2.32447,1.86878 -2.13873,3.11433 0.10121,0.67859 1.60959,1.28293 1.60959,1.28293 0,0 3.6938,-0.7463 6.11489,-1.67481 z"
         id="beak_separate"
         sodipodi:nodetypes="ccscc"
         inkscape:label="beak_separate"
         inkscape:transform-center-x="-1.6729605"
         inkscape:transform-center-y="1.2031014" /><g
         id="g6"
         transform="matrix(0.0407502,-0.01993391,0.01993391,0.0407502,173.60943,380.95259)"
         inkscape:label="HAT">&#10;	<g
   id="g5">&#10;		<polygon
   style="fill:#323232;fill-opacity:1"
   points="239.002,206.998 128.003,245.998 80.003,269.998 0,293.998 152.003,370.998 392.001,359.997 386.001,323.997 410.001,344.997 512,296.998 "
   id="polygon1" />&#10;		<polygon
   style="fill:#272726;fill-opacity:1"
   points="410.001,344.997 512,296.998 308.388,229.873 125.483,259.017 228.408,361.945 392.001,359.997 386.001,323.997 "
   id="polygon2" />&#10;		<polygon
   style="fill:#252525;fill-opacity:1"
   points="125.483,259.017 140.12,202.018 182.003,39 260.002,0 371.001,36 437.001,33 368.001,86.999 341.001,83.999 363.8,202.018 374.839,259.017 375.02,259.979 125.003,260.998 "
   id="polygon3" />&#10;		<polygon
   style="fill:#323333;fill-opacity:1"
   points="341.001,83.999 335.001,57 368.001,86.999 "
   id="polygon4" />&#10;		<polygon
   style="fill:#8968ab"
   points="363.8,202.018 374.839,259.017 125.483,259.017 140.12,202.018 "
   id="polygon5" />&#10;	</g>&#10;	<polygon
   style="opacity:0.08;fill:#231815"
   points="373.339,251.286 363.8,202.018 341.001,83.999 368.001,86.999 437.001,33 371.001,36 260.002,0 257.541,1.231 257.541,366.161 392.001,359.997 386.001,323.997 410.001,344.997 512,296.998 "
   id="polygon6" />&#10;</g></g><g
       id="text"
       inkscape:label="text"
       transform="matrix(0.71021667,-0.71021667,0.71021667,0.71021667,38.675953,144.06823)"><text
         xml:space="preserve"
         style="font-style:normal;font-variant:normal;font-weight:500;font-stretch:normal;font-size:10.2096px;line-height:0.55;font-family:'CC Accidenz Commons';-inkscape-font-specification:'CC Accidenz Commons, Medium';font-variant-ligatures:normal;font-variant-caps:normal;font-variant-numeric:normal;font-variant-east-asian:normal;text-align:start;letter-spacing:-0.541184px;text-anchor:start;display:inline;overflow:visible;fill:#000000;stroke:none;stroke-width:0.162355;stroke-dasharray:none;image-rendering:auto"
         x="45.327579"
         y="94.500023"
         id="m"
         transform="rotate(0.11001445)"
         inkscape:label="m"><tspan
           style="font-style:normal;font-variant:normal;font-weight:bold;font-stretch:normal;font-size:10.2096px;line-height:0.55;font-family:'Segoe UI';-inkscape-font-specification:'Segoe UI Bold';text-align:start;letter-spacing:-0.541184px;text-anchor:start;fill:#cc0066;fill-opacity:1;stroke:#000000;stroke-width:0.162355;stroke-dasharray:none;stroke-opacity:1"
           x="45.327579"
           y="99.756203"
           id="tspan36">M</tspan></text><text
         xml:space="preserve"
         style="font-style:normal;font-variant:normal;font-weight:bold;font-stretch:normal;font-size:10.9025px;line-height:0.95;font-family:'Segoe UI';-inkscape-font-specification:'Segoe UI Bold';text-align:center;letter-spacing:-0.499998px;text-anchor:middle;fill:#ffcc00;fill-opacity:1;stroke:#000000;stroke-width:0.187499;stroke-linecap:round;stroke-linejoin:round;stroke-dasharray:none;stroke-opacity:1"
         x="53.448765"
         y="100.37794"
         id="u"
         transform="rotate(-0.08584601)"
         inkscape:label="u"><tspan
           id="tspan3"
           style="font-size:10.9025px;text-align:start;letter-spacing:-0.499998px;text-anchor:start;stroke-width:0.187499;stroke-dasharray:none"
           x="53.448765"
           y="100.37794">U</tspan></text><text
         xml:space="preserve"
         style="font-style:normal;font-variant:normal;font-weight:bold;font-stretch:normal;font-size:10.8078px;line-height:0.95;font-family:'Segoe UI';-inkscape-font-specification:'Segoe UI Bold';text-align:center;letter-spacing:-0.499536px;text-anchor:middle;fill:#ff6666;fill-opacity:1;stroke:#000000;stroke-width:0.187326;stroke-linecap:round;stroke-linejoin:round;stroke-dasharray:none;stroke-opacity:1"
         x="60.930389"
         y="99.315399"
         id="s"
         transform="rotate(0.01211192)"
         inkscape:label="s"><tspan
           id="tspan3-4"
           style="font-size:10.8078px;text-align:start;letter-spacing:-0.499536px;text-anchor:start;fill:#ff6666;fill-opacity:1;stroke-width:0.187326;stroke-dasharray:none"
           x="60.930389"
           y="99.315399"
           dy="0.73868221">S</tspan></text><text
         xml:space="preserve"
         style="font-style:normal;font-variant:normal;font-weight:500;font-stretch:normal;font-size:7.61114px;line-height:0.55;font-family:'CC Accidenz Commons';-inkscape-font-specification:'CC Accidenz Commons, Medium';font-variant-ligatures:normal;font-variant-caps:normal;font-variant-numeric:normal;font-variant-east-asian:normal;text-align:start;letter-spacing:-0.403447px;text-anchor:start;display:inline;overflow:visible;fill:#8162a0;fill-opacity:1;stroke:#000000;stroke-width:0.221028;stroke-dasharray:none;stroke-opacity:1;image-rendering:auto"
         x="54.205837"
         y="100.10796"
         id="m-3"
         transform="rotate(0.11001414)"
         inkscape:label="wizard"><tspan
           style="font-style:normal;font-variant:normal;font-weight:bold;font-stretch:normal;font-size:7.61114px;line-height:0.55;font-family:'Segoe UI';-inkscape-font-specification:'Segoe UI Bold';text-align:start;letter-spacing:-0.403447px;text-anchor:start;fill:#8162a0;fill-opacity:1;stroke:#000000;stroke-width:0.221028;stroke-dasharray:none;stroke-opacity:1"
           x="54.205837"
           y="104.02638"
           id="tspan36-2">wizard</tspan></text></g></g></svg>
