<?xml version="1.0" encoding="UTF-8" standalone="no"?>
<svg
   version="1.1"
   id="Layer_1"
   x="0px"
   y="0px"
   width="146.35899"
   height="47.956001"
   viewBox="0 0 146.35899 47.956001"
   enable-background="new 0 0 220 80"
   xml:space="preserve"
   sodipodi:docname="zenodo.svg"
   inkscape:version="1.3 (0e150ed6c4, 2023-07-21)"
   xmlns:inkscape="http://www.inkscape.org/namespaces/inkscape"
   xmlns:sodipodi="http://sodipodi.sourceforge.net/DTD/sodipodi-0.dtd"
   xmlns="http://www.w3.org/2000/svg"
   xmlns:svg="http://www.w3.org/2000/svg"><defs
   id="defs1" /><sodipodi:namedview
   id="namedview1"
   pagecolor="#ffffff"
   bordercolor="#000000"
   borderopacity="0.25"
   inkscape:showpageshadow="2"
   inkscape:pageopacity="0.0"
   inkscape:pagecheckerboard="0"
   inkscape:deskcolor="#d1d1d1"
   inkscape:zoom="3.6636364"
   inkscape:cx="73.69727"
   inkscape:cy="29.888337"
   inkscape:window-width="1920"
   inkscape:window-height="1009"
   inkscape:window-x="-8"
   inkscape:window-y="-8"
   inkscape:window-maximized="1"
   inkscape:current-layer="g1" />&#10;<g
   id="g1">&#10;			<path
   fill="#ffffff"
   d="m 145.301,18.875 c -0.705,-1.602 -1.656,-2.997 -2.846,-4.19 -1.189,-1.187 -2.584,-2.125 -4.188,-2.805 -1.604,-0.678 -3.307,-1.02 -5.102,-1.02 -1.848,0 -3.564,0.342 -5.139,1.02 -0.787,0.339 -1.529,0.74 -2.225,1.205 -0.701,0.469 -1.357,1.003 -1.967,1.6 -0.377,0.37 -0.727,0.761 -1.051,1.17 -0.363,0.457 -0.764,1.068 -0.992,1.439 -0.281,0.456 -0.957,1.861 -1.254,2.828 0.041,-1.644 0.281,-4.096 1.254,-5.472 V 2.768 c 0,-0.776 -0.279,-1.431 -0.84,-1.965 C 120.396,0.268 119.75,0 119.021,0 c -0.777,0 -1.43,0.268 -1.969,0.803 -0.531,0.534 -0.801,1.189 -0.801,1.965 v 10.569 c -1.117,-0.778 -2.322,-1.386 -3.605,-1.824 -1.285,-0.436 -2.637,-0.654 -4.045,-0.654 -1.799,0 -3.496,0.342 -5.1,1.02 -1.605,0.679 -3,1.618 -4.195,2.805 -1.186,1.194 -2.139,2.588 -2.836,4.19 -0.053,0.12 -0.1,0.242 -0.15,0.364 -0.047,-0.122 -0.094,-0.244 -0.146,-0.364 -0.705,-1.602 -1.656,-2.997 -2.846,-4.19 -1.189,-1.187 -2.586,-2.125 -4.188,-2.805 -1.604,-0.678 -3.307,-1.02 -5.102,-1.02 -1.848,0 -3.564,0.342 -5.139,1.02 -1.584,0.679 -2.979,1.618 -4.191,2.805 -1.213,1.194 -2.164,2.588 -2.842,4.19 -0.049,0.115 -0.092,0.23 -0.137,0.344 -0.047,-0.114 -0.092,-0.229 -0.141,-0.344 -0.701,-1.602 -1.65,-2.997 -2.84,-4.19 -1.191,-1.187 -2.588,-2.125 -4.193,-2.805 -1.604,-0.678 -3.301,-1.02 -5.104,-1.02 -1.842,0 -3.557,0.342 -5.137,1.02 -1.578,0.679 -2.977,1.618 -4.186,2.805 -1.221,1.194 -2.166,2.588 -2.848,4.19 -0.043,0.106 -0.082,0.214 -0.125,0.32 -0.043,-0.106 -0.084,-0.214 -0.131,-0.32 -0.707,-1.602 -1.656,-2.997 -2.848,-4.19 -1.188,-1.187 -2.582,-2.125 -4.184,-2.805 -1.605,-0.678 -3.309,-1.02 -5.104,-1.02 -1.85,0 -3.564,0.342 -5.137,1.02 -1.467,0.628 -2.764,1.488 -3.91,2.552 V 13.99 c 0,-1.557 -1.262,-2.822 -2.82,-2.822 H 3.246 c -1.557,0 -2.82,1.265 -2.82,2.822 0,1.559 1.264,2.82 2.82,2.82 H 18.787 L 0.557,41.356 C 0.195,41.843 0,42.433 0,43.038 v 1.841 c 0,1.558 1.264,2.822 2.822,2.822 h 21.047 c 1.488,0 2.705,-1.153 2.812,-2.614 0.932,0.743 1.967,1.364 3.109,1.848 1.605,0.684 3.299,1.021 5.102,1.021 2.723,0 5.15,-0.726 7.287,-2.187 1.727,-1.176 3.092,-2.639 4.084,-4.389 v 3.805 c 0,0.778 0.264,1.436 0.805,1.968 0.531,0.537 1.189,0.803 1.967,0.803 0.73,0 1.369,-0.266 1.93,-0.803 0.561,-0.532 0.838,-1.189 0.838,-1.968 v -9.879 h -0.01 c 0,-0.002 0.01,-0.013 0.01,-0.013 0,0 -6.137,0 -6.912,0 -0.58,0 -1.109,0.154 -1.566,0.472 -0.463,0.316 -0.793,0.744 -0.982,1.275 l -0.453,0.93 c -0.631,1.365 -1.566,2.443 -2.809,3.244 -1.238,0.803 -2.633,1.201 -4.188,1.201 -1.023,0 -2.004,-0.191 -2.955,-0.579 -0.941,-0.39 -1.758,-0.935 -2.439,-1.64 -0.682,-0.703 -1.227,-1.52 -1.641,-2.443 -0.41,-0.924 -0.617,-1.893 -0.617,-2.916 v -2.476 h 17.715 1.309 5.539 v -8.385 c 0,-1.015 0.191,-1.99 0.582,-2.912 0.389,-0.922 0.936,-1.74 1.645,-2.444 0.699,-0.703 1.514,-1.249 2.441,-1.641 0.918,-0.388 1.92,-0.581 2.982,-0.581 1.023,0 2.01,0.193 2.955,0.581 0.945,0.393 1.762,0.938 2.439,1.641 0.682,0.704 1.225,1.521 1.641,2.444 0.412,0.922 0.621,1.896 0.621,2.912 v 21.208 c 0,0.778 0.266,1.436 0.799,1.968 0.535,0.537 1.191,0.803 1.971,0.803 0.729,0 1.371,-0.266 1.934,-0.803 0.553,-0.532 0.834,-1.189 0.834,-1.968 v -3.803 c 0.588,1.01 1.283,1.932 2.1,2.749 1.189,1.189 2.586,2.124 4.191,2.804 1.602,0.684 3.303,1.021 5.102,1.021 1.795,0 3.498,-0.337 5.102,-1.021 1.602,-0.68 3.01,-1.614 4.227,-2.804 1.211,-1.19 2.162,-2.589 2.842,-4.189 0.037,-0.095 0.074,-0.19 0.109,-0.286 0.039,0.096 0.074,0.191 0.113,0.286 0.678,1.601 1.625,2.999 2.842,4.189 1.213,1.189 2.607,2.124 4.189,2.804 1.574,0.684 3.293,1.021 5.139,1.021 1.795,0 3.5,-0.337 5.105,-1.021 1.6,-0.68 2.994,-1.614 4.184,-2.804 1.191,-1.19 2.141,-2.589 2.848,-4.189 0.051,-0.12 0.098,-0.239 0.146,-0.36 0.049,0.121 0.094,0.24 0.146,0.36 0.703,1.601 1.652,2.999 2.842,4.189 1.189,1.189 2.586,2.124 4.191,2.804 1.604,0.684 3.303,1.021 5.102,1.021 1.795,0 3.498,-0.337 5.102,-1.021 1.604,-0.68 3.01,-1.614 4.227,-2.804 1.211,-1.19 2.16,-2.589 2.842,-4.189 0.678,-1.606 1.02,-3.306 1.02,-5.104 v -10.86 c -0.004,-1.795 -0.357,-3.498 -1.058,-5.102 z M 7.064,42.06 21.822,22.186 c -0.078,0.587 -0.121,1.184 -0.121,1.791 v 10.86 c 0,1.799 0.35,3.498 1.059,5.104 0.328,0.752 0.719,1.458 1.156,2.119 -0.016,0 -0.031,-0.001 -0.047,-0.001 H 7.064 Z M 42.541,26.817 H 27.24 v -2.841 c 0,-1.015 0.189,-1.99 0.58,-2.912 0.391,-0.922 0.936,-1.74 1.645,-2.444 0.697,-0.703 1.516,-1.249 2.438,-1.641 0.922,-0.388 1.92,-0.581 2.99,-0.581 1.02,0 2.002,0.193 2.949,0.581 0.949,0.393 1.764,0.938 2.441,1.641 0.682,0.704 1.225,1.521 1.641,2.444 0.414,0.922 0.617,1.896 0.617,2.912 z m 49.147,8.02 c 0,1.023 -0.189,1.992 -0.582,2.916 -0.389,0.924 -0.936,1.74 -1.637,2.443 -0.705,0.705 -1.523,1.25 -2.445,1.64 -0.92,0.388 -1.92,0.579 -2.984,0.579 -1.023,0 -2.004,-0.191 -2.955,-0.579 -0.945,-0.39 -1.758,-0.935 -2.439,-1.64 -0.682,-0.703 -1.229,-1.52 -1.641,-2.443 -0.412,-0.923 -0.617,-1.893 -0.617,-2.916 v -10.86 c 0,-1.015 0.191,-1.99 0.582,-2.912 0.387,-0.922 0.934,-1.74 1.639,-2.444 0.701,-0.703 1.52,-1.249 2.441,-1.641 0.922,-0.388 1.92,-0.581 2.99,-0.581 1.018,0 2.004,0.193 2.947,0.581 0.951,0.393 1.764,0.938 2.443,1.641 0.68,0.704 1.223,1.521 1.641,2.444 0.412,0.922 0.617,1.896 0.617,2.912 z m 24.564,0 c 0,1.023 -0.203,1.992 -0.617,2.916 -0.412,0.924 -0.961,1.74 -1.641,2.443 -0.68,0.705 -1.492,1.25 -2.443,1.64 -0.943,0.388 -1.93,0.579 -2.949,0.579 -1.07,0 -2.066,-0.191 -2.988,-0.579 -0.924,-0.39 -1.74,-0.935 -2.439,-1.64 -0.707,-0.703 -1.252,-1.52 -1.643,-2.443 -0.391,-0.923 -0.584,-1.893 -0.584,-2.916 v -10.86 c 0,-1.015 0.211,-1.99 0.619,-2.912 0.416,-0.922 0.961,-1.74 1.641,-2.444 0.682,-0.703 1.496,-1.249 2.439,-1.641 0.951,-0.388 1.934,-0.581 2.955,-0.581 1.068,0 2.062,0.193 2.986,0.581 0.926,0.393 1.738,0.938 2.443,1.641 0.703,0.704 1.252,1.521 1.641,2.444 0.389,0.922 0.58,1.896 0.58,2.912 z m 24.564,0 c 0,1.023 -0.193,1.992 -0.58,2.916 -0.393,0.924 -0.939,1.74 -1.641,2.443 -0.705,0.705 -1.523,1.25 -2.443,1.64 -0.922,0.388 -1.92,0.579 -2.986,0.579 -1.021,0 -2.004,-0.191 -2.955,-0.579 -0.943,-0.39 -1.758,-0.935 -2.438,-1.64 -0.682,-0.703 -1.23,-1.52 -1.643,-2.443 -0.413,-0.923 -0.619,-1.893 -0.619,-2.916 v -10.86 c 0,-1.015 0.193,-1.99 0.584,-2.912 0.387,-0.922 0.934,-1.74 1.639,-2.444 0.703,-0.703 1.518,-1.249 2.441,-1.641 0.924,-0.388 1.92,-0.581 2.99,-0.581 1.02,0 2.004,0.193 2.949,0.581 0.949,0.393 1.764,0.938 2.441,1.641 0.682,0.704 1.225,1.521 1.643,2.444 0.412,0.922 0.617,1.896 0.617,2.912 v 10.86 z"
   id="path1"
   style="fill:#000000;fill-opacity:1" />&#10;</g>&#10;</svg>
